<svg width="93" height="41" viewBox="0 0 93 41" fill="none" xmlns="http://www.w3.org/2000/svg">
<g clip-path="url(#clip0_86_251)">
<path fill-rule="evenodd" clip-rule="evenodd" d="M8.62613 8.57542C9.66726 7.93786 10.8552 7.44356 12.1233 7.05673V4.46348H24.8772C25.1976 4.46348 26.4856 5.32312 26.6992 5.48788C27.8671 6.32603 28.668 7.46506 29.1552 8.8763C29.7959 10.7174 29.7692 12.8306 29.0951 14.6287C28.5612 16.0829 27.6936 17.3796 26.6792 18.4684C26.4456 18.7192 26.1519 19.0845 25.9183 19.2636C25.578 19.5645 25.1108 20.0373 24.7104 20.3597L23.3956 21.4056C22.6081 21.95 21.8072 22.43 20.9596 22.7881C18.27 23.9988 15.4936 24.2209 12.6972 23.2251C12.0632 22.9959 11.5093 22.7881 10.9353 22.4729C10.8085 22.4013 10.7284 22.3798 10.5949 22.3153C10.4681 22.2437 10.4081 22.2222 10.2813 22.1291C10.1545 22.0646 10.0677 22.0216 9.9409 21.95C9.49374 21.6778 9.13335 21.427 8.71289 21.1548C7.90534 20.6104 7.16453 19.9728 6.42372 19.3353C6.25687 19.1991 5.48937 18.5186 5.36256 18.3323C5.48937 18.1747 5.72296 18.0171 5.87646 17.8595L6.13007 17.6088C6.23685 17.5372 6.29692 17.4727 6.4037 17.3796C7.03773 16.8566 7.65173 16.3122 8.33247 15.8322L11.0821 14.1488C11.5493 13.9482 11.9965 13.7404 12.4837 13.5828C14.4325 12.9238 16.1076 12.759 18.1632 13.1244C19.9852 13.4467 21.6337 14.3565 23.2287 15.3523C23.5825 15.5815 23.9228 15.8322 24.2832 16.1044C24.39 16.1761 24.8372 16.5128 24.9439 16.5844C25.8516 15.9039 26.5524 14.858 27.0796 13.6258C25.8916 12.6516 24.6436 11.8062 23.2888 11.0827C18.8173 8.66855 14.3724 8.51095 9.81409 10.6457C9.4537 10.8033 9.13335 10.9896 8.79965 11.1687C8.09888 11.5555 7.54495 11.9209 6.87088 12.3507C6.23685 12.7662 5.68291 13.2175 5.08893 13.6974C4.8153 13.9195 4.54167 14.1488 4.26136 14.3995C3.77416 14.8078 3.28696 15.2448 2.84648 15.6961L2.27252 16.262C2.1257 16.3981 2.01891 16.5343 1.87209 16.6775C1.6118 16.9712 0.470555 18.0816 0.34375 18.2894C0.450533 18.4684 1.6118 19.7221 1.84539 19.9728C2.1257 20.2665 2.37931 20.4958 2.63292 20.7895C2.77974 20.9256 2.90655 21.0187 3.03335 21.1763C3.41377 21.5846 3.86092 21.95 4.28138 22.3153L6.95096 24.4286C8.28576 25.2954 9.60052 26.0906 11.1088 26.635C11.2757 26.6995 11.4692 26.7496 11.6761 26.8428C12.2701 27.0434 12.8841 27.201 13.4981 27.3371C15.24 27.7024 17.2489 27.7024 19.0108 27.3657C19.8117 27.201 20.6192 26.9502 21.36 26.678C23.202 25.9975 24.9172 24.9301 26.4656 23.6764L28.3543 21.993C28.8816 21.5202 30.0495 20.1304 30.47 19.5143C30.9171 18.9054 31.2975 18.2679 31.6579 17.6088C32.5456 16.0113 33.1396 13.6974 33.1396 11.7418C33.1396 10.5311 32.906 8.80466 32.4855 7.66564C32.1652 6.78451 31.8715 6.05381 31.3843 5.28014C31.2108 5.00792 31.084 4.80017 30.9171 4.5781C29.896 3.20984 28.5879 2.18543 27.1463 1.41176C26.8927 1.27565 25.8316 0.709717 25.5579 0.709717H8.62613V8.57542Z" fill="#00B5D0"/>
<path fill-rule="evenodd" clip-rule="evenodd" d="M30.4904 23.0155C30.8975 23.56 31.2579 24.0614 31.5716 24.7205C32.9731 27.7435 32.4859 30.8884 30.6439 33.5461C29.9231 34.5705 29.0288 35.3442 27.9943 35.9818L27.4404 36.254C27.2936 36.297 26.9532 36.4546 26.7863 36.4546H11.8033V30.3654C10.3884 29.907 9.22049 29.3625 8.26611 28.725V40.2083H27.3136C27.6139 40.2083 28.5683 39.8215 28.8219 39.7069C30.1767 39.0693 31.2579 38.3028 32.3124 37.1638C33.0532 36.3901 33.7539 35.5018 34.2411 34.5275C34.6015 33.8183 34.7751 33.5676 35.0687 32.7724C36.0031 30.2723 36.1899 27.3854 35.3891 24.7921C35.3023 24.5199 35.2155 24.2906 35.1088 24.0184C34.7751 23.0657 34.5815 22.7863 34.1143 21.9481C33.9475 21.6329 33.3135 20.7231 33.0799 20.4438C32.9531 20.3076 32.7996 20.1286 32.6995 19.9495C31.8052 21.769 31.4915 21.9266 30.4904 23.0155Z" fill="#00B5D0"/>
<path fill-rule="evenodd" clip-rule="evenodd" d="M8.62598 8.57347C9.66711 7.93591 10.8551 7.44161 12.1231 7.05477V4.46153H24.8771C25.1974 4.46153 26.4855 5.32117 26.699 5.48593C27.867 6.32408 28.6679 7.4631 29.1551 8.87435C29.7958 10.7154 29.7691 12.8287 29.095 14.6268C28.5611 16.081 27.6935 17.3776 26.679 18.4665L26.6123 18.5381H31.1305C31.3174 18.2158 31.4909 17.9221 31.6578 17.6069C32.5454 16.0094 33.1394 13.6955 33.1394 11.7398C33.1394 10.5292 32.9058 8.80271 32.4854 7.66369C32.165 6.78256 31.8714 6.05186 31.3842 5.27818C31.2106 5.00597 31.0838 4.79822 30.917 4.57614C29.9025 3.20788 28.5878 2.18348 27.1462 1.4098C26.8926 1.27369 25.8314 0.707764 25.5578 0.707764H8.62598V8.57347Z" fill="#00B5D0"/>
<path fill-rule="evenodd" clip-rule="evenodd" d="M30.4897 23.0155C30.8969 23.56 31.2572 24.0614 31.5709 24.7205C32.6988 27.1776 32.6121 29.6777 31.5509 31.9773H35.3217C36.0224 29.6777 36.1092 27.1131 35.3884 24.7921C35.3017 24.5199 35.2149 24.2906 35.1081 24.0184C34.7744 23.0657 34.5809 22.7863 34.1137 21.9481C33.9468 21.6329 33.3128 20.7231 33.0792 20.4438C32.9524 20.3076 32.7989 20.1286 32.6988 19.9495C31.8045 21.769 31.4908 21.9266 30.4897 23.0155Z" fill="#00B5D0"/>
<path d="M55.1573 11.4031C55.9114 11.6682 56.5121 12.1123 56.9526 12.7356C57.3931 13.3516 57.6133 14.1253 57.6133 15.0494C57.6133 16.3246 57.1595 17.306 56.2518 17.9937C55.3375 18.6886 54.0094 19.0324 52.2608 19.0324H45.4667V4.35406H51.8737C53.4888 4.35406 54.7301 4.69076 55.6044 5.3713C56.4787 6.05185 56.9125 6.98313 56.9125 8.1723C56.9125 8.89583 56.759 9.54056 56.4454 10.0993C56.1317 10.6581 55.7045 11.0951 55.1573 11.4031ZM48.0028 6.496V10.5435H51.6001C52.4877 10.5435 53.1684 10.3715 53.6423 10.0277C54.1161 9.68383 54.3564 9.18238 54.3564 8.53048C54.3564 7.8571 54.1161 7.34848 53.6423 7.00462C53.1684 6.66793 52.4877 6.496 51.6001 6.496H48.0028ZM52.1073 16.8976C54.0761 16.8976 55.0572 16.1884 55.0572 14.7772C55.0572 13.366 54.0761 12.6568 52.1073 12.6568H48.0028V16.8976H52.1073ZM60.8034 7.83561H63.2461V19.0324H60.8034V7.83561ZM62.0315 5.98738C61.591 5.98738 61.2172 5.83694 60.9169 5.53607C60.6233 5.24236 60.4698 4.86268 60.4698 4.41854C60.4698 3.96723 60.6233 3.59471 60.9169 3.29384C61.2172 2.99297 61.591 2.84253 62.0315 2.84253C62.4786 2.84253 62.8457 2.9858 63.146 3.27235C63.4463 3.5589 63.5998 3.92424 63.5998 4.35406C63.5998 4.81254 63.453 5.20654 63.1594 5.52174C62.8657 5.82978 62.492 5.98738 62.0315 5.98738ZM73.0769 7.70666C74.3916 7.70666 75.4461 8.12215 76.2403 8.94597C77.0345 9.7698 77.4283 10.9948 77.4283 12.6138V19.0324H74.9856V12.9505C74.9856 11.9762 74.772 11.2383 74.3449 10.7369C73.9111 10.2426 73.3038 9.99903 72.5096 9.99903C71.6086 9.99903 70.9011 10.2856 70.3806 10.8658C69.86 11.4461 69.5997 12.2842 69.5997 13.3731V19.0324H67.1571V7.83561H69.4796V9.28267C69.88 8.76688 70.3939 8.37288 71.0013 8.10783C71.6153 7.84277 72.3027 7.70666 73.0769 7.70666ZM85.2301 7.70666C86.7651 7.70666 87.9398 8.10783 88.754 8.89583C89.5682 9.68383 89.9753 10.873 89.9753 12.4705V19.0324H87.6728V17.6713C87.3725 18.1585 86.9453 18.531 86.3914 18.7889C85.8375 19.0539 85.1701 19.1829 84.3892 19.1829C83.6084 19.1829 82.9209 19.0396 82.3336 18.753C81.753 18.4665 81.2992 18.0653 80.9788 17.5567C80.6585 17.0481 80.4983 16.4678 80.4983 15.8231C80.4983 14.8202 80.8453 14.0107 81.5461 13.4018C82.2402 12.7929 83.3414 12.492 84.8364 12.492H87.5326V12.3201C87.5326 11.5392 87.3124 10.9375 86.8786 10.522C86.4448 10.0993 85.7974 9.89158 84.9365 9.89158C84.3492 9.89158 83.7752 9.99187 83.2079 10.1853C82.6406 10.3787 82.1601 10.6509 81.773 11.0019L80.812 9.09641C81.3592 8.6451 82.02 8.30124 82.7875 8.06484C83.555 7.82844 84.3692 7.70666 85.2301 7.70666ZM84.8964 17.2702C85.5104 17.2702 86.051 17.1197 86.5249 16.8188C87.0054 16.518 87.3391 16.0882 87.5326 15.5294V14.2328H85.0099C83.6084 14.2328 82.9009 14.7271 82.9009 15.7228C82.9009 16.1956 83.0811 16.5753 83.4282 16.8547C83.7819 17.134 84.2691 17.2702 84.8964 17.2702ZM54.9971 26.7262L50.5256 37.923H48.0028L43.5312 26.7262H46.0674L49.3109 35.0289L52.6545 26.7262H54.9971ZM57.2262 26.7262H59.6689V37.923H57.2262V26.7262ZM58.4609 24.8851C58.0137 24.8851 57.6467 24.7347 57.3463 24.4338C57.046 24.1329 56.8925 23.7604 56.8925 23.3091C56.8925 22.865 57.046 22.4853 57.3463 22.1844C57.6467 21.8907 58.0137 21.7403 58.4609 21.7403C58.9014 21.7403 59.2751 21.8836 59.5688 22.1701C59.8691 22.4567 60.0226 22.8148 60.0226 23.2447C60.0226 23.7103 59.8758 24.0971 59.5821 24.4123C59.2885 24.7275 58.9147 24.8851 58.4609 24.8851ZM73.3839 32.3927C73.3839 32.5718 73.3705 32.8296 73.3505 33.1663H65.1615C65.3084 33.9902 65.6821 34.6421 66.2828 35.1292C66.8901 35.6091 67.6443 35.8527 68.5386 35.8527C69.6865 35.8527 70.6342 35.4444 71.375 34.6349L72.6831 36.2467C72.2159 36.8485 71.6219 37.3069 70.9078 37.6078C70.187 37.9158 69.3795 38.0734 68.4852 38.0734C67.3373 38.0734 66.3295 37.8299 65.4552 37.3356C64.5809 36.8485 63.9068 36.1679 63.433 35.2939C62.9591 34.42 62.7189 33.4314 62.7189 32.3282C62.7189 31.2393 62.9525 30.2507 63.413 29.3839C63.8735 28.51 64.5142 27.8222 65.3351 27.3351C66.156 26.848 67.0836 26.6044 68.1114 26.6044C69.1259 26.6044 70.0335 26.8408 70.8344 27.3279C71.6353 27.8079 72.2626 28.4885 72.7098 29.3624C73.1636 30.2364 73.3839 31.2465 73.3839 32.3927ZM68.1114 28.6962C67.3306 28.6962 66.6699 28.9469 66.1293 29.4412C65.5887 29.9427 65.2617 30.6017 65.1415 31.4256H71.0613C70.9545 30.6161 70.6409 29.957 70.1069 29.4556C69.573 28.9469 68.9056 28.6962 68.1114 28.6962ZM92.5181 26.7262L88.6672 37.923H86.3247L83.6284 30.2077L80.8921 37.923H78.5495L74.7186 26.7262H77.0212L79.7775 34.9931L82.6473 26.7262H84.7029L87.5126 35.0289L90.3491 26.7262H92.5181Z" fill="#2C2C31"/>
</g>
<defs>
<clipPath id="clip0_86_251">
<rect width="92.174" height="39.5031" fill="white" transform="translate(0.34375 0.708008)"/>
</clipPath>
</defs>
</svg>
