<svg width="142" height="46" viewBox="0 0 142 46" fill="none" xmlns="http://www.w3.org/2000/svg">
<path fill-rule="evenodd" clip-rule="evenodd" d="M23.8689 0.636486C18.3991 0.630935 13.1061 2.57054 8.93846 6.10772C4.77081 9.6449 2.0009 14.5484 1.12513 19.9396C0.24935 25.3307 1.32495 30.8571 4.15917 35.5283C6.9934 40.1995 11.401 43.7103 16.5921 45.4314C17.7366 45.643 18.1605 44.9376 18.1605 44.3168C18.1605 43.696 18.1605 42.3275 18.1605 40.4087C11.7314 41.8055 10.375 37.3189 10.375 37.3189C9.9511 35.9308 9.04398 34.7398 7.81751 33.9611C5.72632 32.5502 7.97294 32.5502 7.97294 32.5502C8.70387 32.6499 9.40225 32.9153 10.0146 33.3261C10.6269 33.737 11.1368 34.2824 11.5054 34.9205C11.8178 35.4867 12.2395 35.9855 12.746 36.3881C13.2526 36.7908 13.8339 37.0892 14.4566 37.2663C15.0793 37.4434 15.7309 37.4956 16.3739 37.4198C17.0169 37.3441 17.6385 37.142 18.2028 36.8251C18.294 35.6651 18.7947 34.5751 19.6158 33.7494C14.5574 33.1992 9.18809 31.224 9.18809 22.4202C9.15681 20.1369 10.0068 17.9291 11.5619 16.2547C10.8603 14.2728 10.9411 12.0985 11.788 10.1739C11.788 10.1739 13.7237 9.55314 18.1181 12.5301C21.8918 11.4976 25.8742 11.4976 29.6479 12.5301C34.0422 9.55314 35.978 10.1739 35.978 10.1739C36.817 12.1018 36.8878 14.2766 36.1758 16.2547C37.727 17.9305 38.5721 20.1386 38.5355 22.4202C38.5355 31.2522 33.1521 33.1851 28.023 33.7071C28.5699 34.2613 28.9926 34.9253 29.263 35.655C29.5334 36.3847 29.6454 37.1635 29.5914 37.9397C29.5914 41.0154 29.5914 43.4844 29.5914 44.2463C29.5914 45.0081 30.0011 45.5725 31.1739 45.3467C36.3059 43.5802 40.6474 40.0595 43.4316 35.4065C46.2158 30.7534 47.2634 25.2676 46.3894 19.918C45.5153 14.5685 42.7759 9.69954 38.655 6.17134C34.5341 2.64314 29.297 0.682748 23.8689 0.636486Z" fill="#191717"/>
<path d="M65.3681 13.839V18.4897C65.1763 18.7023 64.8808 18.9305 64.4815 19.1741C64.0875 19.4126 63.5897 19.6174 62.9883 19.7885C62.3869 19.9596 61.6791 20.0452 60.8651 20.0452C60.1133 20.0452 59.4315 19.9259 58.8197 19.6874C58.2079 19.4438 57.6816 19.0886 57.2409 18.622C56.8054 18.1501 56.4684 17.5746 56.2299 16.8954C55.9966 16.211 55.8799 15.4281 55.8799 14.5467V13.9167C55.8799 13.0353 55.9992 12.2524 56.2377 11.568C56.4762 10.8836 56.8106 10.3081 57.2409 9.84147C57.6765 9.36966 58.1872 9.0119 58.773 8.76822C59.3641 8.52453 60.0122 8.40269 60.7174 8.40269C61.7595 8.40269 62.6072 8.5686 63.2605 8.90043C63.9138 9.22707 64.4089 9.68075 64.746 10.2614C65.083 10.837 65.2878 11.5032 65.3604 12.2602H62.7394C62.6876 11.8869 62.5891 11.5706 62.4439 11.3114C62.3039 11.0469 62.1017 10.8473 61.8373 10.7125C61.5728 10.5725 61.2307 10.5025 60.8107 10.5025C60.484 10.5025 60.1859 10.5725 59.9163 10.7125C59.6519 10.8525 59.4263 11.0651 59.2397 11.3503C59.053 11.6302 58.9079 11.9828 58.8042 12.408C58.7056 12.8331 58.6564 13.3309 58.6564 13.9012V14.5467C58.6564 15.1118 58.7031 15.607 58.7964 16.0321C58.8949 16.4573 59.0401 16.8125 59.2319 17.0976C59.4289 17.3776 59.6778 17.5902 59.9785 17.7354C60.2844 17.8753 60.6448 17.9453 61.0596 17.9453C61.3499 17.9453 61.5988 17.922 61.8062 17.8753C62.0136 17.8235 62.1847 17.7613 62.3195 17.6887C62.4595 17.6109 62.5657 17.5383 62.6383 17.4709V15.7133H60.7407V13.839H65.3681ZM69.6067 11.4747V19.8896H66.978V11.4747H69.6067ZM66.8225 9.30485C66.8225 8.93154 66.9573 8.62564 67.2269 8.38713C67.4965 8.14863 67.8465 8.02938 68.2768 8.02938C68.7072 8.02938 69.0571 8.14863 69.3267 8.38713C69.5964 8.62564 69.7312 8.93154 69.7312 9.30485C69.7312 9.67815 69.5964 9.98406 69.3267 10.2226C69.0571 10.4611 68.7072 10.5803 68.2768 10.5803C67.8465 10.5803 67.4965 10.4611 67.2269 10.2226C66.9573 9.98406 66.8225 9.67815 66.8225 9.30485ZM75.6574 11.4747V13.2946H70.5867V11.4747H75.6574ZM71.6521 9.38262H74.2731V17.1443C74.2731 17.3672 74.299 17.5409 74.3508 17.6654C74.4027 17.7846 74.4908 17.8702 74.6153 17.922C74.7449 17.9687 74.916 17.992 75.1285 17.992C75.2789 17.992 75.4033 17.9894 75.5019 17.9842C75.6004 17.9739 75.6937 17.9609 75.7818 17.9453V19.8197C75.5589 19.8922 75.3256 19.9467 75.0819 19.983C74.8382 20.0245 74.579 20.0452 74.3042 20.0452C73.7442 20.0452 73.2646 19.9571 72.8654 19.7808C72.4713 19.6045 72.1706 19.3271 71.9632 18.9486C71.7558 18.5701 71.6521 18.0776 71.6521 17.4709V9.38262ZM84.4534 13.0612V15.1611H78.6439V13.0612H84.4534ZM79.5538 8.56601V19.8896H76.824V8.56601H79.5538ZM86.2889 8.56601V19.8896H83.5668V8.56601H86.2889ZM92.814 17.8442V11.4747H95.4427V19.8896H92.9851L92.814 17.8442ZM93.0628 16.1332L93.7472 16.1177C93.7472 16.6828 93.6798 17.2065 93.545 17.6887C93.4102 18.1657 93.2106 18.5805 92.9462 18.933C92.6869 19.2856 92.3655 19.5604 91.9818 19.7574C91.6033 19.9493 91.1652 20.0452 90.6674 20.0452C90.2527 20.0452 89.8716 19.9882 89.5242 19.8741C89.182 19.7548 88.8865 19.5708 88.6376 19.3219C88.3887 19.0679 88.1943 18.7438 88.0543 18.3498C87.9195 17.9505 87.8521 17.4735 87.8521 16.9187V11.4747H90.473V16.9343C90.473 17.121 90.4963 17.2817 90.543 17.4165C90.5897 17.5513 90.6571 17.6654 90.7452 17.7587C90.8334 17.8468 90.9422 17.9142 91.0719 17.9609C91.2067 18.0024 91.3596 18.0231 91.5307 18.0231C91.9248 18.0231 92.2333 17.9402 92.4562 17.7742C92.6792 17.6083 92.8347 17.3828 92.9228 17.0976C93.0162 16.8125 93.0628 16.491 93.0628 16.1332ZM96.9126 7.94383H99.5335V17.8209L99.2613 19.8896H96.9126V7.94383ZM104.698 15.5888V15.7522C104.698 16.3899 104.633 16.9706 104.503 17.4943C104.374 18.0179 104.174 18.4716 103.904 18.8553C103.635 19.2338 103.295 19.5267 102.885 19.7341C102.476 19.9415 101.991 20.0452 101.431 20.0452C100.923 20.0452 100.487 19.9363 100.125 19.7185C99.7616 19.4956 99.4583 19.1897 99.2146 18.8008C98.9709 18.4068 98.7739 17.9531 98.6235 17.4398C98.4732 16.9213 98.3539 16.3666 98.2658 15.7755V15.5811C98.3539 14.9952 98.4732 14.4456 98.6235 13.9323C98.7739 13.4138 98.9709 12.9601 99.2146 12.5713C99.4583 12.1772 99.759 11.8713 100.117 11.6536C100.48 11.4306 100.913 11.3191 101.416 11.3191C101.981 11.3191 102.468 11.4254 102.878 11.638C103.292 11.8506 103.635 12.1487 103.904 12.5324C104.174 12.9161 104.374 13.3671 104.503 13.8856C104.633 14.4041 104.698 14.9719 104.698 15.5888ZM102.077 15.7522V15.5888C102.077 15.2829 102.058 14.9952 102.022 14.7256C101.986 14.456 101.921 14.2175 101.828 14.0101C101.734 13.8027 101.602 13.6394 101.431 13.5201C101.26 13.4009 101.037 13.3412 100.762 13.3412C100.482 13.3412 100.246 13.3879 100.055 13.4812C99.8679 13.5745 99.7175 13.7093 99.6035 13.8856C99.4946 14.0567 99.4168 14.2693 99.3702 14.5234C99.3235 14.7722 99.3028 15.0548 99.3079 15.3711V15.9855C99.2976 16.4158 99.3365 16.7839 99.4246 17.0898C99.5127 17.3958 99.6657 17.6291 99.8835 17.7898C100.101 17.9505 100.399 18.0309 100.778 18.0309C101.058 18.0309 101.283 17.9765 101.454 17.8676C101.631 17.7587 101.763 17.6031 101.851 17.4009C101.939 17.1987 101.999 16.9576 102.03 16.6777C102.061 16.3977 102.077 16.0892 102.077 15.7522ZM119.412 8.56601V19.8896H116.69L112.685 12.8435V19.8896H109.955V8.56601H112.685L116.69 15.6122V8.56601H119.412ZM126.077 10.9458L123.316 19.8896H120.384L124.545 8.56601H126.404L126.077 10.9458ZM128.364 19.8896L125.595 10.9458L125.237 8.56601H127.119L131.303 19.8896H128.364ZM128.255 15.6666V17.7742H122.445V15.6666H128.255ZM138.14 8.56601H140.869V15.9622C140.869 16.8436 140.685 17.5902 140.317 18.202C139.949 18.8086 139.433 19.2675 138.77 19.5786C138.106 19.8896 137.326 20.0452 136.429 20.0452C135.542 20.0452 134.762 19.8896 134.088 19.5786C133.419 19.2675 132.895 18.8086 132.517 18.202C132.143 17.5902 131.957 16.8436 131.957 15.9622V8.56601H134.694V15.9622C134.694 16.4288 134.762 16.8099 134.897 17.1054C135.031 17.3958 135.228 17.6083 135.488 17.7431C135.747 17.8779 136.061 17.9453 136.429 17.9453C136.802 17.9453 137.116 17.8779 137.37 17.7431C137.624 17.6083 137.816 17.3958 137.945 17.1054C138.075 16.8099 138.14 16.4288 138.14 15.9622V8.56601ZM62.545 32.0555H65.267C65.2307 32.8436 65.0182 33.5383 64.6293 34.1398C64.2404 34.7412 63.7012 35.2104 63.0116 35.5475C62.3272 35.8793 61.5184 36.0452 60.5851 36.0452C59.8282 36.0452 59.1515 35.9182 58.5553 35.6641C57.9642 35.4101 57.4613 35.0445 57.0465 34.5675C56.6369 34.0905 56.3232 33.5124 56.1055 32.8332C55.8929 32.154 55.7866 31.3892 55.7866 30.5389V29.9245C55.7866 29.0742 55.8981 28.3094 56.121 27.6302C56.3491 26.9458 56.6706 26.3651 57.0854 25.8881C57.5054 25.406 58.0083 25.0378 58.5942 24.7838C59.1801 24.5297 59.8307 24.4027 60.5463 24.4027C61.5314 24.4027 62.3635 24.579 63.0427 24.9315C63.722 25.2841 64.2482 25.7689 64.6215 26.3859C64.9948 26.9977 65.2152 27.695 65.2826 28.478H62.5606C62.5502 28.0528 62.4776 27.6976 62.3428 27.4125C62.208 27.1221 61.9954 26.9044 61.7051 26.7592C61.4147 26.614 61.0284 26.5414 60.5463 26.5414C60.2092 26.5414 59.9163 26.6036 59.6674 26.7281C59.4186 26.8525 59.2112 27.0495 59.0453 27.3191C58.8793 27.5888 58.7549 27.9387 58.6719 28.3691C58.5942 28.7942 58.5553 29.3075 58.5553 29.909V30.5389C58.5553 31.1404 58.5916 31.6537 58.6642 32.0788C58.7368 32.504 58.8534 32.8513 59.0141 33.121C59.1749 33.3906 59.3823 33.5902 59.6363 33.7198C59.8956 33.8442 60.2118 33.9065 60.5851 33.9065C60.9999 33.9065 61.3499 33.8416 61.6351 33.712C61.9202 33.5772 62.1406 33.375 62.2961 33.1054C62.4517 32.8306 62.5346 32.4806 62.545 32.0555ZM66.107 31.7677V31.6044C66.107 30.9874 66.1951 30.4197 66.3714 29.9012C66.5477 29.3775 66.8069 28.9238 67.1491 28.5402C67.4913 28.1565 67.9139 27.8584 68.4168 27.6458C68.9197 27.428 69.5004 27.3191 70.1589 27.3191C70.8226 27.3191 71.4059 27.428 71.9088 27.6458C72.4169 27.8584 72.842 28.1565 73.1842 28.5402C73.5264 28.9238 73.7857 29.3775 73.962 29.9012C74.1382 30.4197 74.2264 30.9874 74.2264 31.6044V31.7677C74.2264 32.3795 74.1382 32.9473 73.962 33.4709C73.7857 33.9894 73.5264 34.4431 73.1842 34.8319C72.842 35.2156 72.4195 35.5137 71.9166 35.7263C71.4136 35.9389 70.8329 36.0452 70.1745 36.0452C69.516 36.0452 68.9327 35.9389 68.4246 35.7263C67.9165 35.5137 67.4913 35.2156 67.1491 34.8319C66.8069 34.4431 66.5477 33.9894 66.3714 33.4709C66.1951 32.9473 66.107 32.3795 66.107 31.7677ZM68.7279 31.6044V31.7677C68.7279 32.084 68.7512 32.3795 68.7979 32.6543C68.8446 32.9291 68.9223 33.1702 69.0312 33.3776C69.1401 33.5798 69.2879 33.7379 69.4745 33.852C69.6612 33.9661 69.8945 34.0231 70.1745 34.0231C70.4493 34.0231 70.6774 33.9661 70.8589 33.852C71.0455 33.7379 71.1933 33.5798 71.3022 33.3776C71.411 33.1702 71.4888 32.9291 71.5355 32.6543C71.5821 32.3795 71.6055 32.084 71.6055 31.7677V31.6044C71.6055 31.2985 71.5821 31.0107 71.5355 30.7411C71.4888 30.4663 71.411 30.2252 71.3022 30.0178C71.1933 29.8053 71.0455 29.6394 70.8589 29.5201C70.6722 29.4009 70.4389 29.3412 70.1589 29.3412C69.8841 29.3412 69.6534 29.4009 69.4667 29.5201C69.2853 29.6394 69.1401 29.8053 69.0312 30.0178C68.9223 30.2252 68.8446 30.4663 68.7979 30.7411C68.7512 31.0107 68.7279 31.2985 68.7279 31.6044ZM78.0372 29.2557V35.8896H75.4163V27.4747H77.8739L78.0372 29.2557ZM77.7184 31.3944L77.1195 31.41C77.1195 30.8189 77.1895 30.2745 77.3295 29.7768C77.4695 29.279 77.6769 28.8461 77.9517 28.478C78.2265 28.1098 78.5635 27.8247 78.9627 27.6225C79.3671 27.4203 79.8338 27.3191 80.3626 27.3191C80.7307 27.3191 81.0652 27.3762 81.3659 27.4902C81.6666 27.5991 81.9258 27.7728 82.1436 28.0113C82.3614 28.2446 82.5273 28.5505 82.6413 28.929C82.7606 29.3023 82.8202 29.7508 82.8202 30.2745V35.8896H80.1993V30.6089C80.1993 30.2512 80.1578 29.9816 80.0749 29.8001C79.9971 29.6186 79.883 29.4968 79.7327 29.4346C79.5823 29.3723 79.3982 29.3412 79.1805 29.3412C78.9524 29.3412 78.7476 29.3931 78.5661 29.4968C78.3846 29.6005 78.2291 29.7456 78.0994 29.9323C77.975 30.1138 77.8791 30.3289 77.8117 30.5778C77.7495 30.8267 77.7184 31.0989 77.7184 31.3944ZM82.5247 31.3944L81.7936 31.41C81.7936 30.8189 81.8584 30.2745 81.9881 29.7768C82.1229 29.279 82.3225 28.8461 82.5869 28.478C82.8565 28.1098 83.1909 27.8247 83.5902 27.6225C83.9894 27.4203 84.4534 27.3191 84.9823 27.3191C85.366 27.3191 85.7185 27.3762 86.04 27.4902C86.3615 27.6043 86.6388 27.7884 86.8722 28.0424C87.1055 28.2965 87.2869 28.6335 87.4166 29.0535C87.5462 29.4683 87.611 29.9816 87.611 30.5934V35.8896H84.9823V30.5934C84.9823 30.246 84.9408 29.9841 84.8579 29.8079C84.7801 29.6264 84.666 29.5045 84.5157 29.4423C84.3653 29.3749 84.1864 29.3412 83.979 29.3412C83.7302 29.3412 83.515 29.3931 83.3335 29.4968C83.1521 29.6005 82.9991 29.7456 82.8747 29.9323C82.7554 30.1138 82.6673 30.3289 82.6102 30.5778C82.5532 30.8267 82.5247 31.0989 82.5247 31.3944ZM91.7563 29.2557V35.8896H89.1353V27.4747H91.5929L91.7563 29.2557ZM91.4374 31.3944L90.8385 31.41C90.8385 30.8189 90.9085 30.2745 91.0485 29.7768C91.1885 29.279 91.3959 28.8461 91.6707 28.478C91.9455 28.1098 92.2825 27.8247 92.6817 27.6225C93.0862 27.4203 93.5528 27.3191 94.0816 27.3191C94.4498 27.3191 94.7842 27.3762 95.0849 27.4902C95.3856 27.5991 95.6449 27.7728 95.8626 28.0113C96.0804 28.2446 96.2463 28.5505 96.3604 28.929C96.4796 29.3023 96.5392 29.7508 96.5392 30.2745V35.8896H93.9183V30.6089C93.9183 30.2512 93.8768 29.9816 93.7939 29.8001C93.7161 29.6186 93.602 29.4968 93.4517 29.4346C93.3013 29.3723 93.1173 29.3412 92.8995 29.3412C92.6714 29.3412 92.4666 29.3931 92.2851 29.4968C92.1036 29.6005 91.9481 29.7456 91.8185 29.9323C91.694 30.1138 91.5981 30.3289 91.5307 30.5778C91.4685 30.8267 91.4374 31.0989 91.4374 31.3944ZM96.2437 31.3944L95.5127 31.41C95.5127 30.8189 95.5775 30.2745 95.7071 29.7768C95.8419 29.279 96.0415 28.8461 96.3059 28.478C96.5755 28.1098 96.91 27.8247 97.3092 27.6225C97.7084 27.4203 98.1725 27.3191 98.7013 27.3191C99.085 27.3191 99.4376 27.3762 99.759 27.4902C100.08 27.6043 100.358 27.7884 100.591 28.0424C100.824 28.2965 101.006 28.6335 101.136 29.0535C101.265 29.4683 101.33 29.9816 101.33 30.5934V35.8896H98.7013V30.5934C98.7013 30.246 98.6598 29.9841 98.5769 29.8079C98.4991 29.6264 98.385 29.5045 98.2347 29.4423C98.0843 29.3749 97.9054 29.3412 97.6981 29.3412C97.4492 29.3412 97.234 29.3931 97.0525 29.4968C96.8711 29.6005 96.7181 29.7456 96.5937 29.9323C96.4744 30.1138 96.3863 30.3289 96.3293 30.5778C96.2722 30.8267 96.2437 31.0989 96.2437 31.3944ZM107.746 33.8442V27.4747H110.375V35.8896H107.917L107.746 33.8442ZM107.995 32.1332L108.679 32.1177C108.679 32.6828 108.612 33.2065 108.477 33.6887C108.342 34.1657 108.143 34.5805 107.878 34.933C107.619 35.2856 107.298 35.5604 106.914 35.7574C106.536 35.9493 106.097 36.0452 105.6 36.0452C105.185 36.0452 104.804 35.9882 104.456 35.8741C104.114 35.7548 103.819 35.5708 103.57 35.3219C103.321 35.0679 103.127 34.7438 102.987 34.3498C102.852 33.9505 102.784 33.4735 102.784 32.9187V27.4747H105.405V32.9343C105.405 33.121 105.429 33.2817 105.475 33.4165C105.522 33.5513 105.589 33.6654 105.677 33.7587C105.766 33.8468 105.875 33.9142 106.004 33.9609C106.139 34.0024 106.292 34.0231 106.463 34.0231C106.857 34.0231 107.166 33.9402 107.388 33.7742C107.611 33.6083 107.767 33.3828 107.855 33.0976C107.948 32.8125 107.995 32.491 107.995 32.1332ZM114.396 29.2712V35.8896H111.775V27.4747H114.232L114.396 29.2712ZM114.085 31.3944L113.47 31.41C113.47 30.7671 113.548 30.1941 113.704 29.6912C113.859 29.1831 114.079 28.7527 114.365 28.4002C114.65 28.0476 114.989 27.7806 115.383 27.5991C115.783 27.4125 116.226 27.3191 116.713 27.3191C117.102 27.3191 117.457 27.3762 117.779 27.4902C118.105 27.6043 118.385 27.7884 118.619 28.0424C118.857 28.2965 119.039 28.6335 119.163 29.0535C119.293 29.4683 119.358 29.9816 119.358 30.5934V35.8896H116.721V30.5856C116.721 30.2486 116.674 29.9919 116.581 29.8156C116.488 29.6342 116.353 29.5097 116.177 29.4423C116 29.3749 115.785 29.3412 115.531 29.3412C115.262 29.3412 115.033 29.3931 114.847 29.4968C114.66 29.6005 114.51 29.7456 114.396 29.9323C114.287 30.1138 114.207 30.3289 114.155 30.5778C114.108 30.8267 114.085 31.0989 114.085 31.3944ZM123.581 27.4747V35.8896H120.952V27.4747H123.581ZM120.796 25.3048C120.796 24.9315 120.931 24.6256 121.201 24.3871C121.47 24.1486 121.82 24.0294 122.251 24.0294C122.681 24.0294 123.031 24.1486 123.301 24.3871C123.57 24.6256 123.705 24.9315 123.705 25.3048C123.705 25.6782 123.57 25.9841 123.301 26.2226C123.031 26.4611 122.681 26.5803 122.251 26.5803C121.82 26.5803 121.47 26.4611 121.201 26.2226C120.931 25.9841 120.796 25.6782 120.796 25.3048ZM129.631 27.4747V29.2946H124.561V27.4747H129.631ZM125.626 25.3826H128.247V33.1443C128.247 33.3672 128.273 33.5409 128.325 33.6654C128.377 33.7846 128.465 33.8702 128.589 33.922C128.719 33.9687 128.89 33.992 129.102 33.992C129.253 33.992 129.377 33.9894 129.476 33.9842C129.574 33.9739 129.668 33.9609 129.756 33.9453V35.8197C129.533 35.8922 129.3 35.9467 129.056 35.983C128.812 36.0245 128.553 36.0452 128.278 36.0452C127.718 36.0452 127.239 35.9571 126.839 35.7808C126.445 35.6045 126.145 35.3271 125.937 34.9486C125.73 34.5701 125.626 34.0776 125.626 33.4709V25.3826ZM133.256 34.9019L135.433 27.4747H138.248L134.865 37.1418C134.793 37.3544 134.697 37.5825 134.578 37.8262C134.458 38.075 134.295 38.311 134.088 38.5339C133.88 38.7569 133.613 38.9383 133.287 39.0783C132.965 39.2183 132.566 39.2883 132.089 39.2883C131.835 39.2883 131.648 39.2753 131.529 39.2494C131.415 39.2287 131.239 39.1898 131 39.1328V37.2584C131.068 37.2584 131.125 37.2584 131.171 37.2584C131.223 37.2584 131.28 37.2584 131.342 37.2584C131.622 37.2584 131.845 37.2299 132.011 37.1729C132.182 37.1159 132.312 37.0329 132.4 36.924C132.493 36.8151 132.566 36.6829 132.618 36.5274L133.256 34.9019ZM132.703 27.4747L134.36 33.3621L134.648 36.1385H132.89L129.896 27.4747H132.703Z" fill="#191717"/>
</svg>
