<svg width="142" height="45" viewBox="0 0 142 45" fill="none" xmlns="http://www.w3.org/2000/svg">
<path fill-rule="evenodd" clip-rule="evenodd" d="M24.0129 0.0429806C18.5431 0.0374296 13.2502 1.97704 9.0825 5.51422C4.91485 9.0514 2.14494 13.9549 1.26917 19.3461C0.393393 24.7372 1.46899 30.2636 4.30322 34.9348C7.13744 39.606 11.545 43.1168 16.7361 44.8379C17.8806 45.0495 18.3045 44.3441 18.3045 43.7233C18.3045 43.1025 18.3045 41.734 18.3045 39.8152C11.8755 41.212 10.519 36.7254 10.519 36.7254C10.0951 35.3373 9.18802 34.1463 7.96156 33.3676C5.87036 31.9567 8.11698 31.9567 8.11698 31.9567C8.84791 32.0564 9.54629 32.3218 10.1586 32.7326C10.7709 33.1435 11.2809 33.6889 11.6494 34.327C11.9619 34.8932 12.3835 35.392 12.8901 35.7946C13.3966 36.1972 13.978 36.4957 14.6007 36.6728C15.2233 36.8499 15.875 36.9021 16.518 36.8263C17.161 36.7506 17.7825 36.5485 18.3469 36.2316C18.438 35.0716 18.9387 33.9816 19.7599 33.1559C14.7014 32.6057 9.33214 30.6305 9.33214 21.8267C9.30085 19.5434 10.1509 17.3356 11.7059 15.6612C11.0043 13.6793 11.0852 11.505 11.932 9.58042C11.932 9.58042 13.8678 8.95964 18.2621 11.9366C22.0358 10.9041 26.0182 10.9041 29.7919 11.9366C34.1863 8.95964 36.122 9.58042 36.122 9.58042C36.9611 11.5083 37.0318 13.6831 36.3199 15.6612C37.871 17.337 38.7161 19.5451 38.6795 21.8267C38.6795 30.6587 33.2961 32.5916 28.167 33.1136C28.714 33.6678 29.1367 34.3318 29.4071 35.0615C29.6775 35.7912 29.7894 36.57 29.7354 37.3462C29.7354 40.4219 29.7354 42.8909 29.7354 43.6528C29.7354 44.4146 30.1452 44.979 31.3179 44.7532C36.4499 42.9867 40.7915 39.466 43.5757 34.8129C46.3598 30.1599 47.4074 24.6741 46.5334 19.3245C45.6594 13.975 42.9199 9.10604 38.799 5.57784C34.6782 2.04964 29.441 0.0892417 24.0129 0.0429806Z" fill="#191717"/>
<path d="M65.5122 13.2455V17.8962C65.3203 18.1088 65.0248 18.337 64.6256 18.5806C64.2315 18.8191 63.7338 19.0239 63.1323 19.195C62.5309 19.3661 61.8232 19.4517 61.0092 19.4517C60.2574 19.4517 59.5756 19.3324 58.9638 19.0939C58.3519 18.8502 57.8257 18.4951 57.385 18.0285C56.9495 17.5566 56.6124 16.9811 56.3739 16.3019C56.1406 15.6175 56.024 14.8346 56.024 13.9532V13.3232C56.024 12.4418 56.1432 11.6589 56.3817 10.9745C56.6202 10.2901 56.9546 9.7146 57.385 9.24797C57.8205 8.77615 58.3312 8.4184 58.9171 8.17471C59.5082 7.93103 60.1563 7.80918 60.8614 7.80918C61.9035 7.80918 62.7513 7.9751 63.4045 8.30692C64.0578 8.63357 64.553 9.08724 64.89 9.66794C65.227 10.2435 65.4318 10.9097 65.5044 11.6667H62.8835C62.8316 11.2934 62.7331 10.9771 62.5879 10.7179C62.448 10.4534 62.2457 10.2538 61.9813 10.119C61.7169 9.97903 61.3747 9.90903 60.9547 9.90903C60.6281 9.90903 60.33 9.97903 60.0603 10.119C59.7959 10.259 59.5704 10.4716 59.3837 10.7568C59.1971 11.0367 59.0519 11.3893 58.9482 11.8145C58.8497 12.2396 58.8004 12.7374 58.8004 13.3077V13.9532C58.8004 14.5183 58.8471 15.0135 58.9404 15.4386C59.0389 15.8638 59.1841 16.219 59.3759 16.5041C59.573 16.7841 59.8218 16.9967 60.1226 17.1419C60.4285 17.2818 60.7888 17.3518 61.2036 17.3518C61.4939 17.3518 61.7428 17.3285 61.9502 17.2818C62.1576 17.23 62.3287 17.1678 62.4635 17.0952C62.6035 17.0174 62.7098 16.9448 62.7824 16.8774V15.1198H60.8847V13.2455H65.5122ZM69.7508 10.8812V19.2961H67.1221V10.8812H69.7508ZM66.9665 8.71134C66.9665 8.33803 67.1013 8.03213 67.3709 7.79363C67.6405 7.55513 67.9905 7.43588 68.4209 7.43588C68.8512 7.43588 69.2012 7.55513 69.4708 7.79363C69.7404 8.03213 69.8752 8.33803 69.8752 8.71134C69.8752 9.08465 69.7404 9.39055 69.4708 9.62905C69.2012 9.86755 68.8512 9.98681 68.4209 9.98681C67.9905 9.98681 67.6405 9.86755 67.3709 9.62905C67.1013 9.39055 66.9665 9.08465 66.9665 8.71134ZM75.8014 10.8812V12.7011H70.7307V10.8812H75.8014ZM71.7962 8.78911H74.4171V16.5508C74.4171 16.7737 74.443 16.9474 74.4949 17.0719C74.5467 17.1911 74.6349 17.2767 74.7593 17.3285C74.8889 17.3752 75.06 17.3985 75.2726 17.3985C75.423 17.3985 75.5474 17.3959 75.6459 17.3907C75.7444 17.3804 75.8377 17.3674 75.9259 17.3518V19.2261C75.7029 19.2987 75.4696 19.3532 75.2259 19.3895C74.9822 19.4309 74.723 19.4517 74.4482 19.4517C73.8882 19.4517 73.4087 19.3635 73.0094 19.1873C72.6154 19.011 72.3147 18.7336 72.1073 18.3551C71.8999 17.9766 71.7962 17.484 71.7962 16.8774V8.78911ZM84.5975 12.4677V14.5676H78.7879V12.4677H84.5975ZM79.6978 7.9725V19.2961H76.968V7.9725H79.6978ZM86.4329 7.9725V19.2961H83.7109V7.9725H86.4329ZM92.958 17.2507V10.8812H95.5867V19.2961H93.1291L92.958 17.2507ZM93.2069 15.5397L93.8913 15.5242C93.8913 16.0893 93.8239 16.613 93.6891 17.0952C93.5543 17.5722 93.3546 17.987 93.0902 18.3395C92.831 18.6921 92.5095 18.9669 92.1258 19.1639C91.7473 19.3558 91.3092 19.4517 90.8115 19.4517C90.3967 19.4517 90.0156 19.3947 89.6682 19.2806C89.326 19.1613 89.0305 18.9773 88.7816 18.7284C88.5328 18.4743 88.3383 18.1503 88.1983 17.7563C88.0635 17.357 87.9961 16.88 87.9961 16.3252V10.8812H90.6171V16.3408C90.6171 16.5275 90.6404 16.6882 90.6871 16.823C90.7337 16.9578 90.8011 17.0719 90.8893 17.1652C90.9774 17.2533 91.0863 17.3207 91.2159 17.3674C91.3507 17.4089 91.5037 17.4296 91.6748 17.4296C92.0688 17.4296 92.3773 17.3467 92.6002 17.1807C92.8232 17.0148 92.9787 16.7893 93.0669 16.5041C93.1602 16.219 93.2069 15.8975 93.2069 15.5397ZM97.0566 7.35033H99.6775V17.2274L99.4053 19.2961H97.0566V7.35033ZM104.842 14.9953V15.1587C104.842 15.7964 104.777 16.3771 104.647 16.9008C104.518 17.4244 104.318 17.8781 104.048 18.2618C103.779 18.6403 103.439 18.9332 103.03 19.1406C102.62 19.348 102.135 19.4517 101.575 19.4517C101.067 19.4517 100.632 19.3428 100.269 19.125C99.9057 18.9021 99.6023 18.5962 99.3587 18.2073C99.115 17.8133 98.9179 17.3596 98.7676 16.8463C98.6172 16.3278 98.498 15.7731 98.4098 15.182V14.9876C98.498 14.4017 98.6172 13.8521 98.7676 13.3388C98.9179 12.8203 99.115 12.3666 99.3587 11.9778C99.6023 11.5837 99.9031 11.2778 100.261 11.0601C100.624 10.8371 101.057 10.7256 101.56 10.7256C102.125 10.7256 102.612 10.8319 103.022 11.0445C103.437 11.2571 103.779 11.5552 104.048 11.9389C104.318 12.3226 104.518 12.7736 104.647 13.2921C104.777 13.8106 104.842 14.3783 104.842 14.9953ZM102.221 15.1587V14.9953C102.221 14.6894 102.203 14.4017 102.166 14.1321C102.13 13.8625 102.065 13.624 101.972 13.4166C101.878 13.2092 101.746 13.0458 101.575 12.9266C101.404 12.8073 101.181 12.7477 100.906 12.7477C100.626 12.7477 100.39 12.7944 100.199 12.8877C100.012 12.981 99.8616 13.1158 99.7475 13.2921C99.6386 13.4632 99.5609 13.6758 99.5142 13.9299C99.4675 14.1787 99.4468 14.4613 99.452 14.7776V15.392C99.4416 15.8223 99.4805 16.1904 99.5686 16.4963C99.6568 16.8022 99.8097 17.0356 100.027 17.1963C100.245 17.357 100.543 17.4374 100.922 17.4374C101.202 17.4374 101.427 17.3829 101.598 17.2741C101.775 17.1652 101.907 17.0096 101.995 16.8074C102.083 16.6052 102.143 16.3641 102.174 16.0841C102.205 15.8042 102.221 15.4957 102.221 15.1587ZM119.556 7.9725V19.2961H116.834L112.829 12.25V19.2961H110.099V7.9725H112.829L116.834 15.0187V7.9725H119.556ZM126.221 10.3523L123.46 19.2961H120.528L124.689 7.9725H126.548L126.221 10.3523ZM128.508 19.2961L125.739 10.3523L125.381 7.9725H127.263L131.447 19.2961H128.508ZM128.399 15.0731V17.1807H122.589V15.0731H128.399ZM138.284 7.9725H141.013V15.3686C141.013 16.2501 140.829 16.9967 140.461 17.6085C140.093 18.2151 139.577 18.674 138.914 18.9851C138.25 19.2961 137.47 19.4517 136.573 19.4517C135.686 19.4517 134.906 19.2961 134.232 18.9851C133.563 18.674 133.039 18.2151 132.661 17.6085C132.287 16.9967 132.101 16.2501 132.101 15.3686V7.9725H134.838V15.3686C134.838 15.8353 134.906 16.2164 135.041 16.5119C135.175 16.8022 135.372 17.0148 135.632 17.1496C135.891 17.2844 136.205 17.3518 136.573 17.3518C136.946 17.3518 137.26 17.2844 137.514 17.1496C137.768 17.0148 137.96 16.8022 138.089 16.5119C138.219 16.2164 138.284 15.8353 138.284 15.3686V7.9725ZM62.689 31.462H65.4111C65.3748 32.2501 65.1622 32.9448 64.7733 33.5463C64.3845 34.1477 63.8453 34.6169 63.1557 34.9539C62.4713 35.2858 61.6625 35.4517 60.7292 35.4517C59.9722 35.4517 59.2956 35.3247 58.6993 35.0706C58.1083 34.8165 57.6053 34.451 57.1905 33.974C56.7809 33.497 56.4673 32.9189 56.2495 32.2397C56.0369 31.5605 55.9306 30.7957 55.9306 29.9454V29.331C55.9306 28.4807 56.0421 27.7159 56.2651 27.0367C56.4932 26.3523 56.8146 25.7716 57.2294 25.2946C57.6494 24.8124 58.1523 24.4443 58.7382 24.1903C59.3241 23.9362 59.9748 23.8092 60.6903 23.8092C61.6754 23.8092 62.5076 23.9855 63.1868 24.338C63.866 24.6906 64.3923 25.1754 64.7656 25.7924C65.1389 26.4042 65.3592 27.1015 65.4266 27.8844H62.7046C62.6942 27.4593 62.6216 27.1041 62.4868 26.819C62.352 26.5286 62.1395 26.3109 61.8491 26.1657C61.5588 26.0205 61.1725 25.9479 60.6903 25.9479C60.3533 25.9479 60.0603 26.0101 59.8115 26.1346C59.5626 26.259 59.3552 26.456 59.1893 26.7256C59.0234 26.9953 58.8989 27.3452 58.816 27.7756C58.7382 28.2007 58.6993 28.714 58.6993 29.3155V29.9454C58.6993 30.5469 58.7356 31.0601 58.8082 31.4853C58.8808 31.9105 58.9975 32.2578 59.1582 32.5275C59.3189 32.7971 59.5263 32.9967 59.7804 33.1263C60.0396 33.2507 60.3559 33.313 60.7292 33.313C61.144 33.313 61.4939 33.2481 61.7791 33.1185C62.0643 32.9837 62.2846 32.7815 62.4402 32.5119C62.5957 32.2371 62.6787 31.8871 62.689 31.462ZM66.251 31.1742V31.0109C66.251 30.3939 66.3392 29.8262 66.5154 29.3077C66.6917 28.784 66.951 28.3303 67.2932 27.9467C67.6354 27.563 68.0579 27.2649 68.5608 27.0523C69.0638 26.8345 69.6445 26.7256 70.3029 26.7256C70.9666 26.7256 71.5499 26.8345 72.0528 27.0523C72.5609 27.2649 72.9861 27.563 73.3283 27.9467C73.6705 28.3303 73.9297 28.784 74.106 29.3077C74.2823 29.8262 74.3704 30.3939 74.3704 31.0109V31.1742C74.3704 31.786 74.2823 32.3538 74.106 32.8774C73.9297 33.3959 73.6705 33.8496 73.3283 34.2384C72.9861 34.6221 72.5635 34.9202 72.0606 35.1328C71.5577 35.3454 70.977 35.4517 70.3185 35.4517C69.66 35.4517 69.0767 35.3454 68.5686 35.1328C68.0605 34.9202 67.6354 34.6221 67.2932 34.2384C66.951 33.8496 66.6917 33.3959 66.5154 32.8774C66.3392 32.3538 66.251 31.786 66.251 31.1742ZM68.8719 31.0109V31.1742C68.8719 31.4905 68.8953 31.786 68.9419 32.0608C68.9886 32.3356 69.0664 32.5767 69.1752 32.7841C69.2841 32.9863 69.4319 33.1444 69.6186 33.2585C69.8052 33.3726 70.0385 33.4296 70.3185 33.4296C70.5933 33.4296 70.8214 33.3726 71.0029 33.2585C71.1895 33.1444 71.3373 32.9863 71.4462 32.7841C71.5551 32.5767 71.6329 32.3356 71.6795 32.0608C71.7262 31.786 71.7495 31.4905 71.7495 31.1742V31.0109C71.7495 30.705 71.7262 30.4172 71.6795 30.1476C71.6329 29.8728 71.5551 29.6317 71.4462 29.4243C71.3373 29.2118 71.1895 29.0458 71.0029 28.9266C70.8162 28.8073 70.5829 28.7477 70.3029 28.7477C70.0282 28.7477 69.7974 28.8073 69.6108 28.9266C69.4293 29.0458 69.2841 29.2118 69.1752 29.4243C69.0664 29.6317 68.9886 29.8728 68.9419 30.1476C68.8953 30.4172 68.8719 30.705 68.8719 31.0109ZM78.1813 28.6622V35.2961H75.5603V26.8812H78.018L78.1813 28.6622ZM77.8624 30.8009L77.2636 30.8165C77.2636 30.2254 77.3336 29.681 77.4735 29.1832C77.6135 28.6855 77.8209 28.2526 78.0957 27.8844C78.3705 27.5163 78.7075 27.2312 79.1068 27.029C79.5112 26.8267 79.9778 26.7256 80.5067 26.7256C80.8748 26.7256 81.2092 26.7827 81.5099 26.8967C81.8106 27.0056 82.0699 27.1793 82.2876 27.4178C82.5054 27.6511 82.6713 27.957 82.7854 28.3355C82.9046 28.7088 82.9643 29.1573 82.9643 29.681V35.2961H80.3433V30.0154C80.3433 29.6577 80.3019 29.388 80.2189 29.2066C80.1411 29.0251 80.0271 28.9033 79.8767 28.841C79.7263 28.7788 79.5423 28.7477 79.3245 28.7477C79.0964 28.7477 78.8916 28.7996 78.7101 28.9033C78.5287 29.007 78.3731 29.1521 78.2435 29.3388C78.1191 29.5203 78.0231 29.7354 77.9557 29.9843C77.8935 30.2332 77.8624 30.5054 77.8624 30.8009ZM82.6687 30.8009L81.9377 30.8165C81.9377 30.2254 82.0025 29.681 82.1321 29.1832C82.2669 28.6855 82.4665 28.2526 82.731 27.8844C83.0006 27.5163 83.335 27.2312 83.7342 27.029C84.1334 26.8267 84.5975 26.7256 85.1263 26.7256C85.51 26.7256 85.8626 26.7827 86.184 26.8967C86.5055 27.0108 86.7829 27.1949 87.0162 27.4489C87.2495 27.703 87.431 28.04 87.5606 28.46C87.6902 28.8747 87.755 29.388 87.755 29.9999V35.2961H85.1263V29.9999C85.1263 29.6525 85.0849 29.3906 85.0019 29.2144C84.9241 29.0329 84.8101 28.911 84.6597 28.8488C84.5093 28.7814 84.3305 28.7477 84.1231 28.7477C83.8742 28.7477 83.659 28.7996 83.4776 28.9033C83.2961 29.007 83.1431 29.1521 83.0187 29.3388C82.8995 29.5203 82.8113 29.7354 82.7543 29.9843C82.6972 30.2332 82.6687 30.5054 82.6687 30.8009ZM91.9003 28.6622V35.2961H89.2794V26.8812H91.737L91.9003 28.6622ZM91.5814 30.8009L90.9826 30.8165C90.9826 30.2254 91.0526 29.681 91.1926 29.1832C91.3326 28.6855 91.54 28.2526 91.8147 27.8844C92.0895 27.5163 92.4266 27.2312 92.8258 27.029C93.2302 26.8267 93.6968 26.7256 94.2257 26.7256C94.5938 26.7256 94.9282 26.7827 95.2289 26.8967C95.5297 27.0056 95.7889 27.1793 96.0067 27.4178C96.2244 27.6511 96.3903 27.957 96.5044 28.3355C96.6237 28.7088 96.6833 29.1573 96.6833 29.681V35.2961H94.0624V30.0154C94.0624 29.6577 94.0209 29.388 93.9379 29.2066C93.8602 29.0251 93.7461 28.9033 93.5957 28.841C93.4454 28.7788 93.2613 28.7477 93.0435 28.7477C92.8154 28.7477 92.6106 28.7996 92.4291 28.9033C92.2477 29.007 92.0921 29.1521 91.9625 29.3388C91.8381 29.5203 91.7422 29.7354 91.6748 29.9843C91.6125 30.2332 91.5814 30.5054 91.5814 30.8009ZM96.3878 30.8009L95.6567 30.8165C95.6567 30.2254 95.7215 29.681 95.8511 29.1832C95.9859 28.6855 96.1855 28.2526 96.45 27.8844C96.7196 27.5163 97.054 27.2312 97.4532 27.029C97.8525 26.8267 98.3165 26.7256 98.8454 26.7256C99.229 26.7256 99.5816 26.7827 99.9031 26.8967C100.225 27.0108 100.502 27.1949 100.735 27.4489C100.969 27.703 101.15 28.04 101.28 28.46C101.409 28.8747 101.474 29.388 101.474 29.9999V35.2961H98.8454V29.9999C98.8454 29.6525 98.8039 29.3906 98.7209 29.2144C98.6432 29.0329 98.5291 28.911 98.3787 28.8488C98.2284 28.7814 98.0495 28.7477 97.8421 28.7477C97.5932 28.7477 97.3781 28.7996 97.1966 28.9033C97.0151 29.007 96.8622 29.1521 96.7377 29.3388C96.6185 29.5203 96.5303 29.7354 96.4733 29.9843C96.4163 30.2332 96.3878 30.5054 96.3878 30.8009ZM107.89 33.2507V26.8812H110.519V35.2961H108.061L107.89 33.2507ZM108.139 31.5397L108.824 31.5242C108.824 32.0893 108.756 32.613 108.621 33.0952C108.487 33.5722 108.287 33.987 108.022 34.3395C107.763 34.6921 107.442 34.9669 107.058 35.1639C106.68 35.3558 106.241 35.4517 105.744 35.4517C105.329 35.4517 104.948 35.3947 104.601 35.2806C104.258 35.1613 103.963 34.9773 103.714 34.7284C103.465 34.4743 103.271 34.1503 103.131 33.7563C102.996 33.357 102.928 32.88 102.928 32.3252V26.8812H105.549V32.3408C105.549 32.5275 105.573 32.6882 105.619 32.823C105.666 32.9578 105.733 33.0719 105.822 33.1652C105.91 33.2533 106.019 33.3207 106.148 33.3674C106.283 33.4089 106.436 33.4296 106.607 33.4296C107.001 33.4296 107.31 33.3467 107.533 33.1807C107.755 33.0148 107.911 32.7893 107.999 32.5041C108.092 32.219 108.139 31.8975 108.139 31.5397ZM114.54 28.6777V35.2961H111.919V26.8812H114.376L114.54 28.6777ZM114.229 30.8009L113.614 30.8165C113.614 30.1735 113.692 29.6006 113.848 29.0977C114.003 28.5896 114.224 28.1592 114.509 27.8067C114.794 27.4541 115.133 27.1871 115.528 27.0056C115.927 26.819 116.37 26.7256 116.857 26.7256C117.246 26.7256 117.601 26.7827 117.923 26.8967C118.25 27.0108 118.53 27.1949 118.763 27.4489C119.001 27.703 119.183 28.04 119.307 28.46C119.437 28.8747 119.502 29.388 119.502 29.9999V35.2961H116.865V29.9921C116.865 29.6551 116.819 29.3984 116.725 29.2221C116.632 29.0407 116.497 28.9162 116.321 28.8488C116.144 28.7814 115.929 28.7477 115.675 28.7477C115.406 28.7477 115.178 28.7996 114.991 28.9033C114.804 29.007 114.654 29.1521 114.54 29.3388C114.431 29.5203 114.351 29.7354 114.299 29.9843C114.252 30.2332 114.229 30.5054 114.229 30.8009ZM123.725 26.8812V35.2961H121.096V26.8812H123.725ZM120.94 24.7113C120.94 24.338 121.075 24.0321 121.345 23.7936C121.614 23.5551 121.964 23.4359 122.395 23.4359C122.825 23.4359 123.175 23.5551 123.445 23.7936C123.714 24.0321 123.849 24.338 123.849 24.7113C123.849 25.0846 123.714 25.3906 123.445 25.6291C123.175 25.8676 122.825 25.9868 122.395 25.9868C121.964 25.9868 121.614 25.8676 121.345 25.6291C121.075 25.3906 120.94 25.0846 120.94 24.7113ZM129.775 26.8812V28.7011H124.705V26.8812H129.775ZM125.77 24.7891H128.391V32.5508C128.391 32.7737 128.417 32.9474 128.469 33.0719C128.521 33.1911 128.609 33.2767 128.733 33.3285C128.863 33.3752 129.034 33.3985 129.247 33.3985C129.397 33.3985 129.521 33.3959 129.62 33.3907C129.718 33.3804 129.812 33.3674 129.9 33.3518V35.2261C129.677 35.2987 129.444 35.3532 129.2 35.3895C128.956 35.4309 128.697 35.4517 128.422 35.4517C127.862 35.4517 127.383 35.3635 126.983 35.1873C126.589 35.011 126.289 34.7336 126.081 34.3551C125.874 33.9766 125.77 33.484 125.77 32.8774V24.7891ZM133.4 34.3084L135.577 26.8812H138.393L135.009 36.5483C134.937 36.7609 134.841 36.989 134.722 37.2327C134.602 37.4815 134.439 37.7175 134.232 37.9404C134.024 38.1633 133.757 38.3448 133.431 38.4848C133.109 38.6248 132.71 38.6948 132.233 38.6948C131.979 38.6948 131.792 38.6818 131.673 38.6559C131.559 38.6352 131.383 38.5963 131.144 38.5392V36.6649C131.212 36.6649 131.269 36.6649 131.315 36.6649C131.367 36.6649 131.424 36.6649 131.486 36.6649C131.766 36.6649 131.989 36.6364 132.155 36.5794C132.326 36.5224 132.456 36.4394 132.544 36.3305C132.637 36.2216 132.71 36.0894 132.762 35.9339L133.4 34.3084ZM132.847 26.8812L134.504 32.7685L134.792 35.545H133.034L130.04 26.8812H132.847Z" fill="#191717"/>
</svg>
