<svg width="50" height="51" viewBox="0 0 50 51" fill="none" xmlns="http://www.w3.org/2000/svg">
<g clip-path="url(#clip0_86_245)">
<path d="M22.321 22.3617V18.725C22.321 18.5344 22.3282 18.331 22.3425 18.1148C22.3567 17.8985 22.3777 17.673 22.4052 17.4382L18.8682 22.3642L22.321 22.3617Z" fill="#1B84ED"/>
<path d="M25.0915 0.550781C11.3348 0.550781 0.182617 11.703 0.182617 25.4597C0.182617 39.2164 11.3348 50.3686 25.0915 50.3686C38.8483 50.3686 50.0005 39.2164 50.0005 25.4597C50.0005 11.703 38.8483 0.550781 25.0915 0.550781ZM12.5708 14.8092H15.1115V27.0275H12.5708V14.8092ZM17.2353 33.3957C17.2381 33.6829 17.189 33.9683 17.0903 34.2381C16.9995 34.4892 16.8563 34.718 16.6701 34.9094C16.484 35.1008 16.2592 35.2503 16.0107 35.3481C15.4457 35.5613 14.8222 35.5613 14.2572 35.3481C14.0088 35.2502 13.7842 35.1006 13.5981 34.9093C13.4121 34.7179 13.2689 34.4891 13.1781 34.2381C13.0792 33.9684 13.0299 33.683 13.0326 33.3957V30.2831H13.8721V33.3922C13.8696 33.5826 13.8986 33.7722 13.9578 33.9532C14.0107 34.1131 14.0954 34.2607 14.2068 34.3871C14.3161 34.5093 14.4515 34.6055 14.6029 34.6685C14.9453 34.8027 15.3256 34.8027 15.668 34.6685C15.8196 34.6055 15.9556 34.5101 16.0665 34.3891C16.1785 34.2638 16.2633 34.1168 16.3156 33.9571C16.3752 33.776 16.4043 33.5863 16.4018 33.3957V30.2831H17.2353V33.3957ZM22.8542 35.4467H22.4273C22.3705 35.4482 22.314 35.4366 22.2624 35.4128C22.2115 35.3852 22.1674 35.3466 22.1334 35.2997L19.2972 31.6566C19.3042 31.7258 19.3097 31.7946 19.3132 31.8628C19.3167 31.9311 19.3187 31.9938 19.3187 32.0511V35.4467H18.5799V30.2831H19.0173C19.0479 30.2828 19.0785 30.2847 19.1089 30.2886C19.133 30.2919 19.1565 30.2986 19.1787 30.3085C19.2015 30.319 19.2222 30.3335 19.2399 30.3513C19.2617 30.374 19.282 30.3979 19.3007 30.4231L22.1403 34.0697C22.1329 33.996 22.1274 33.9203 22.1239 33.851C22.1204 33.7818 22.1184 33.7125 22.1184 33.6518V30.2831H22.8537L22.8542 35.4467ZM25.106 35.4467H24.2631V30.2831H25.106V35.4467ZM25.7566 23.6757C25.7589 23.7365 25.7483 23.797 25.7256 23.8533C25.703 23.9097 25.6687 23.9607 25.6251 24.003C25.5814 24.0453 25.5294 24.0779 25.4723 24.0988C25.4152 24.1196 25.3544 24.1283 25.2938 24.1241H24.3443V27.0295H22.3212V24.1221H17.2776C17.1336 24.1223 16.9935 24.075 16.8791 23.9876C16.7616 23.9031 16.6816 23.7763 16.6559 23.6339L16.4103 22.4706L22.1359 14.7987H24.3443V22.3625H25.7586L25.7566 23.6757ZM30.0185 30.5954C30.0185 30.6429 30.0106 30.69 29.9951 30.7349C29.9798 30.7804 29.9587 30.8238 29.9324 30.864L27.1605 34.7692H29.9647V35.4467H26.0635V35.1169C26.0631 35.0736 26.0703 35.0306 26.0849 34.9899C26.0994 34.95 26.1186 34.912 26.1422 34.8768L28.9245 30.9611H26.2174V30.2831H30.0185V30.5954ZM31.8668 35.4467H31.0224V30.2831H31.8668V35.4467ZM36.7987 35.4467C36.7539 35.4473 36.709 35.4438 36.6647 35.4362C36.631 35.4301 36.5983 35.4192 36.5676 35.4039C36.5409 35.3899 36.5167 35.3718 36.4959 35.3501C36.475 35.3281 36.4565 35.3041 36.4406 35.2783L34.827 33.306C34.8055 33.2777 34.7814 33.2513 34.7552 33.2273C34.7301 33.2052 34.7017 33.1871 34.671 33.1735C34.6361 33.1584 34.5992 33.1482 34.5614 33.1431C34.5139 33.1367 34.4659 33.1337 34.418 33.1342H34.1086V35.4467H33.2706V30.2831H34.1086V32.492H34.3487C34.4247 32.4947 34.5004 32.482 34.5714 32.4546C34.6318 32.4273 34.6848 32.3862 34.7263 32.3346L36.2896 30.4699C36.3346 30.4091 36.3929 30.3594 36.46 30.3244C36.5297 30.2948 36.605 30.2806 36.6807 30.2831H37.3966L35.5533 32.4636C35.5091 32.5194 35.4604 32.5715 35.4078 32.6195C35.3621 32.6599 35.3107 32.6935 35.2554 32.7192C35.3256 32.7446 35.391 32.7815 35.4492 32.8283C35.5131 32.8823 35.5697 32.9444 35.6176 33.0131L37.5326 35.4442L36.7987 35.4467ZM29.5961 22.7197C29.7678 23.22 30.0434 23.6784 30.4046 24.0648C30.7549 24.4315 31.1819 24.7161 31.6551 24.8983C32.5214 25.2119 33.4599 25.2685 34.3577 25.0612C34.6772 24.979 34.9886 24.8676 35.2878 24.7284V22.6739H33.9093C33.7695 22.6821 33.632 22.6352 33.5262 22.5434C33.4806 22.501 33.4447 22.4494 33.4207 22.392C33.3967 22.3346 33.3853 22.2728 33.3872 22.2106V20.8047H37.5809V25.8483C36.9786 26.2921 36.3046 26.6291 35.5882 26.8446C34.8624 27.0583 34.1094 27.1647 33.3528 27.1605C32.3482 27.1605 31.4387 27.0047 30.6243 26.6932C29.8477 26.405 29.1374 25.9626 28.5365 25.3925C27.9563 24.8352 27.4998 24.1622 27.1964 23.4172C26.8822 22.6533 26.7251 21.8199 26.7251 20.9168C26.7251 20.0015 26.8745 19.1622 27.1734 18.399C27.4582 17.6592 27.8958 16.9879 28.4577 16.4287C29.0339 15.8649 29.7205 15.4262 30.4744 15.1404C31.2628 14.8316 32.1454 14.6771 33.1222 14.6771C33.5965 14.6745 34.0701 14.7154 34.537 14.7992C34.9516 14.8731 35.3585 14.985 35.7526 15.1335C36.4413 15.3969 37.0727 15.7907 37.6123 16.2932L36.88 17.4216C36.8336 17.5036 36.7708 17.5752 36.6954 17.6317C36.6201 17.6882 36.5338 17.7284 36.4421 17.7499C36.262 17.7894 36.0656 17.7446 35.8527 17.6154C35.6504 17.4918 35.4525 17.3809 35.2589 17.2826C35.0592 17.1819 34.8524 17.0962 34.6401 17.026C34.4067 16.9496 34.1672 16.8933 33.9243 16.8577C33.6286 16.8156 33.3302 16.7958 33.0315 16.7984C32.5034 16.7901 31.9791 16.8894 31.4907 17.0903C31.0425 17.2783 30.6414 17.5629 30.3159 17.9238C29.9819 18.3006 29.7277 18.7412 29.5687 19.219C29.388 19.7652 29.2997 20.3376 29.3076 20.9128C29.3093 21.586 29.4054 22.1883 29.5961 22.7197Z" fill="#1B84ED"/>
</g>
<defs>
<clipPath id="clip0_86_245">
<rect width="49.8179" height="49.8179" fill="white" transform="translate(0.182617 0.550781)"/>
</clipPath>
</defs>
</svg>
