<svg width="132" height="33" viewBox="0 0 132 33" fill="none" xmlns="http://www.w3.org/2000/svg">
<path d="M9.46614 10.6001H6.42569V24.3605H1.97473V10.6001H0V6.99543H1.97473V6.11778C1.97473 3.98633 2.58073 2.41908 3.79273 1.41605C5.00473 0.413014 6.83318 -0.0571586 9.27808 0.00553152V3.70422C8.21235 3.68333 7.47052 3.86095 7.05259 4.23709C6.63466 4.61322 6.42569 5.29236 6.42569 6.2745V6.99543H9.46614V10.6001Z" />
<path d="M10.5546 15.6153C10.5546 13.86 10.8994 12.3032 11.589 10.9449C12.2995 9.58661 13.2503 8.54178 14.4414 7.8104C15.6534 7.07902 17.0012 6.71333 18.4849 6.71333C19.7805 6.71333 20.9089 6.97454 21.8701 7.49695C22.8523 8.01936 23.6359 8.67761 24.221 9.47167V6.99543H28.6406V24.3605H24.221V21.8215C23.6568 22.6365 22.8732 23.3157 21.8701 23.859C20.888 24.3814 19.7491 24.6426 18.4535 24.6426C16.9908 24.6426 15.6534 24.2664 14.4414 23.5142C13.2503 22.7619 12.2995 21.7066 11.589 20.3483C10.8994 18.9692 10.5546 17.3915 10.5546 15.6153ZM24.221 15.678C24.221 14.6122 24.012 13.7032 23.5941 12.951C23.1762 12.1778 22.612 11.5927 21.9015 11.1956C21.191 10.7777 20.4283 10.5687 19.6133 10.5687C18.7983 10.5687 18.0461 10.7673 17.3565 11.1643C16.6669 11.5613 16.1027 12.1464 15.6639 12.9196C15.2459 13.6719 15.037 14.5704 15.037 15.6153C15.037 16.6601 15.2459 17.5795 15.6639 18.3736C16.1027 19.1468 16.6669 19.7423 17.3565 20.1603C18.067 20.5782 18.8192 20.7872 19.6133 20.7872C20.4283 20.7872 21.191 20.5886 21.9015 20.1916C22.612 19.7737 23.1762 19.1886 23.5941 18.4363C24.012 17.6631 24.221 16.7437 24.221 15.678Z" />
<path d="M51.6972 15.6153C51.6972 13.86 52.042 12.3032 52.7316 10.9449C53.4421 9.58661 54.3929 8.54178 55.584 7.8104C56.796 7.07902 58.1438 6.71333 59.6274 6.71333C60.923 6.71333 62.0515 6.97454 63.0127 7.49695C63.9948 8.01936 64.7785 8.67761 65.3636 9.47167V6.99543H69.7832V24.3605H65.3636V21.8215C64.7993 22.6365 64.0157 23.3157 63.0127 23.859C62.0306 24.3814 60.8917 24.6426 59.5961 24.6426C58.1333 24.6426 56.796 24.2664 55.584 23.5142C54.3929 22.7619 53.4421 21.7066 52.7316 20.3483C52.042 18.9692 51.6972 17.3915 51.6972 15.6153ZM65.3636 15.678C65.3636 14.6122 65.1546 13.7032 64.7367 12.951C64.3187 12.1778 63.7545 11.5927 63.044 11.1956C62.3336 10.7777 61.5708 10.5687 60.7559 10.5687C59.9409 10.5687 59.1886 10.7673 58.499 11.1643C57.8094 11.5613 57.2452 12.1464 56.8064 12.9196C56.3885 13.6719 56.1795 14.5704 56.1795 15.6153C56.1795 16.6601 56.3885 17.5795 56.8064 18.3736C57.2452 19.1468 57.8094 19.7423 58.499 20.1603C59.2095 20.5782 59.9618 20.7872 60.7559 20.7872C61.5708 20.7872 62.3336 20.5886 63.044 20.1916C63.7545 19.7737 64.3187 19.1886 64.7367 18.4363C65.1546 17.6631 65.3636 16.7437 65.3636 15.678Z" />
<path d="M72.3138 15.6153C72.3138 13.86 72.6586 12.3032 73.3482 10.9449C74.0586 9.58661 75.0199 8.54178 76.2319 7.8104C77.4439 7.07902 78.7917 6.71333 80.2754 6.71333C81.4038 6.71333 82.48 6.96409 83.5039 7.46561C84.5278 7.94623 85.3428 8.59402 85.9488 9.40899V1.16529H90.3998V24.3605H85.9488V21.7902C85.4055 22.647 84.6428 23.3365 83.6606 23.859C82.6785 24.3814 81.5396 24.6426 80.244 24.6426C78.7813 24.6426 77.4439 24.2664 76.2319 23.5142C75.0199 22.7619 74.0586 21.7066 73.3482 20.3483C72.6586 18.9692 72.3138 17.3915 72.3138 15.6153ZM85.9801 15.678C85.9801 14.6122 85.7712 13.7032 85.3532 12.951C84.9353 12.1778 84.3711 11.5927 83.6606 11.1956C82.9501 10.7777 82.1874 10.5687 81.3724 10.5687C80.5575 10.5687 79.8052 10.7673 79.1156 11.1643C78.426 11.5613 77.8618 12.1464 77.423 12.9196C77.0051 13.6719 76.7961 14.5704 76.7961 15.6153C76.7961 16.6601 77.0051 17.5795 77.423 18.3736C77.8618 19.1468 78.426 19.7423 79.1156 20.1603C79.8261 20.5782 80.5784 20.7872 81.3724 20.7872C82.1874 20.7872 82.9501 20.5886 83.6606 20.1916C84.3711 19.7737 84.9353 19.1886 85.3532 18.4363C85.7712 17.6631 85.9801 16.7437 85.9801 15.678Z" />
<path d="M92.9304 15.6153C92.9304 13.86 93.2752 12.3032 93.9648 10.9449C94.6752 9.58661 95.626 8.54178 96.8171 7.8104C98.0291 7.07902 99.377 6.71333 100.861 6.71333C102.156 6.71333 103.285 6.97454 104.246 7.49695C105.228 8.01936 106.012 8.67761 106.597 9.47167V6.99543H111.016V24.3605H106.597V21.8215C106.033 22.6365 105.249 23.3157 104.246 23.859C103.264 24.3814 102.125 24.6426 100.829 24.6426C99.3665 24.6426 98.0291 24.2664 96.8171 23.5142C95.626 22.7619 94.6752 21.7066 93.9648 20.3483C93.2752 18.9692 92.9304 17.3915 92.9304 15.6153ZM106.597 15.678C106.597 14.6122 106.388 13.7032 105.97 12.951C105.552 12.1778 104.988 11.5927 104.277 11.1956C103.567 10.7777 102.804 10.5687 101.989 10.5687C101.174 10.5687 100.422 10.7673 99.7322 11.1643C99.0426 11.5613 98.4784 12.1464 98.0396 12.9196C97.6217 13.6719 97.4127 14.5704 97.4127 15.6153C97.4127 16.6601 97.6217 17.5795 98.0396 18.3736C98.4784 19.1468 99.0426 19.7423 99.7322 20.1603C100.443 20.5782 101.195 20.7872 101.989 20.7872C102.804 20.7872 103.567 20.5886 104.277 20.1916C104.988 19.7737 105.552 19.1886 105.97 18.4363C106.388 17.6631 106.597 16.7437 106.597 15.678Z" />
<path d="M131.288 6.99543L120.537 32.5728H115.866L119.628 23.9217L112.669 6.99543H117.59L122.073 19.1259L126.618 6.99543H131.288Z" />
<g clip-path="url(#clip0_202_2287)">
<path fill-rule="evenodd" clip-rule="evenodd" d="M31.1553 9.58436V21.9625C31.1553 22.7451 31.4683 23.5277 32.0553 24.0234C32.4074 24.3234 32.8379 24.519 33.3726 24.519H46.416C46.8986 24.519 47.3291 24.3234 47.603 24.1147C48.3465 23.5669 48.6204 22.8625 48.6334 21.9495C48.6334 21.8843 48.6464 21.8582 48.6464 21.793V21.6886C48.6334 19.3147 48.6464 16.9147 48.6464 14.5278C48.0334 14.7365 47.3552 14.9974 46.9769 15.193C46.9378 15.2061 46.8986 15.2191 46.8595 15.2452V19.3799C46.8595 19.6147 46.8465 19.8234 46.8465 20.0452C46.8465 20.4886 46.8465 20.9451 46.8465 21.4017C46.8465 22.2756 46.9117 22.7321 46.1812 22.7712C46.0639 22.7712 45.9595 22.7582 45.8552 22.7712C45.5813 22.8104 35.7596 22.7843 35.4857 22.7843C35.2118 22.7843 34.977 22.7712 34.7161 22.7712C34.3509 22.7712 33.5292 22.8104 33.2422 22.6799C33.0596 22.6017 32.9553 22.4191 32.9553 22.1712C32.9553 22.106 32.9422 22.0799 32.9422 22.0017C32.9422 21.9364 32.9422 21.8712 32.9422 21.806C32.9422 21.6625 32.9292 21.5582 32.9292 21.4278L32.9161 17.4495C32.9161 16.8887 32.9292 16.3669 32.9292 15.8191V13.3669C32.9292 13.08 32.9422 12.8452 32.9422 12.5583V10.1061C32.9422 9.8061 32.9161 9.23219 33.1248 9.04959C33.3074 8.88002 33.5292 8.88002 33.777 8.88002C33.8683 8.88002 33.8944 8.86698 33.9726 8.86698C37.2465 8.82785 40.6117 8.86698 43.8726 8.86698C44.2769 8.86698 46.0508 8.84089 46.3639 8.90611C46.6117 8.95828 46.7682 9.07567 46.8204 9.3235C46.8595 9.57132 46.8204 9.87132 46.8465 10.1322C46.8725 10.3931 46.8595 10.7061 46.8595 10.98C46.8595 11.28 46.8725 11.5278 46.8725 11.8148V12.5191C47.4204 12.2974 47.9943 12.0887 48.5551 11.9322L48.6464 11.893V10.067C48.6464 9.40176 48.5682 8.69741 48.216 8.16264C48.1769 8.08438 48.1247 8.0322 48.0725 7.95394C47.6812 7.45829 46.8986 7.09308 46.2465 7.09308H33.5813C33.2553 7.09308 32.877 7.19743 32.577 7.31482C31.677 7.69307 31.1553 8.59307 31.1553 9.58436Z" />
<path fill-rule="evenodd" clip-rule="evenodd" d="M40.6121 16.6514C40.5208 16.5862 40.273 16.3253 40.1817 16.221C39.9599 16.0123 39.7382 15.8036 39.4904 15.634L39.3599 15.5427C39.3208 15.5167 39.2686 15.4906 39.2295 15.4645C39.1904 15.4254 39.1382 15.3993 39.0991 15.3732C38.5382 15.0993 37.9904 14.9036 37.3512 14.7341C36.7904 14.6036 36.1513 14.4471 35.5513 14.5123C35.486 14.5254 35.4208 14.5384 35.3556 14.5514C35.3556 14.7732 35.3426 14.9427 35.3426 15.1645C35.3426 15.3601 35.3165 15.5819 35.3165 15.7775C35.3165 16.1949 35.2773 16.5993 35.2773 17.0166C35.3295 17.0166 35.3295 17.0036 35.3947 17.0036C36.1904 17.0036 36.5295 17.0166 37.2469 17.2906C37.6904 17.4471 38.0947 17.7079 38.4469 18.0079C38.473 18.034 38.486 18.0471 38.5121 18.0732C38.6425 18.1645 38.773 18.3079 38.8773 18.4253L38.9947 18.5688C39.3077 18.9471 39.5425 19.2862 39.7773 19.7166C40.0121 20.1601 40.1947 20.6166 40.3512 21.0862C40.3643 21.1514 40.3903 21.2427 40.4164 21.2949C40.4947 21.2557 40.6121 21.2297 40.7034 21.2036L41.5903 20.9166C41.6947 20.8775 41.786 20.8514 41.8773 20.8253L42.4773 20.6297C42.5686 20.6036 42.699 20.5775 42.7773 20.5384C42.7773 20.4992 42.7642 20.4471 42.7642 20.3949C42.7382 20.1731 42.699 19.9253 42.699 19.6905C42.699 19.6253 42.686 19.6123 42.686 19.5471C42.6599 18.8166 42.7251 18.1775 42.9599 17.4862C43.1034 17.0427 43.3251 16.6514 43.586 16.2732L43.7686 16.0253C43.9251 15.8427 44.2121 15.5167 44.3947 15.3732C44.5773 15.2167 44.7599 15.0601 44.9555 14.9036L45.2164 14.721C45.399 14.5906 45.5816 14.4732 45.7773 14.3688C46.0251 14.2123 46.4033 13.9906 46.6773 13.8862C46.7294 13.8601 46.7686 13.8341 46.8207 13.808C46.8729 13.7819 46.9251 13.7688 46.9773 13.7428C47.6033 13.4297 49.012 12.9341 49.6642 12.7515L50.3685 12.5428C50.4859 12.5036 50.6033 12.4645 50.7338 12.4384C50.6946 12.3732 50.4468 11.3297 50.4207 11.2254L50.1859 10.3254C50.1598 10.2341 50.1468 10.1037 50.1077 10.0254C49.9511 10.0384 48.699 10.4297 48.5555 10.4819C47.8772 10.6776 47.1729 10.9384 46.5207 11.2123C46.4555 11.2384 46.4033 11.2645 46.3381 11.2906L45.8164 11.5123C45.7642 11.5515 45.712 11.5776 45.6468 11.6036C45.5294 11.6428 45.4121 11.708 45.3077 11.7602C44.9816 11.9428 44.6555 12.1123 44.3425 12.321C43.9381 12.5819 43.5468 12.8558 43.1686 13.1558C43.0382 13.2732 42.8947 13.3775 42.7642 13.508C42.7251 13.5601 42.686 13.5862 42.6338 13.6254C42.4251 13.8341 42.2034 14.0428 42.0208 14.2775L41.6947 14.6949C41.3164 15.1906 41.0034 15.7123 40.7556 16.2732C40.7164 16.3514 40.6121 16.5601 40.6121 16.6514Z" />
</g>
<defs>
<clipPath id="clip0_202_2287">
<rect width="19.5781" height="17.4283" fill="white" transform="translate(31.1553 7.08954)"/>
</clipPath>
</defs>
</svg>
