<svg width="25" height="24" viewBox="0 0 25 24" fill="none" xmlns="http://www.w3.org/2000/svg">
<g id="Menu / More_Horizontal">
<g id="Vector">
<path d="M17.9775 12C17.9775 12.5523 18.4253 13 18.9775 13C19.5298 13 19.9775 12.5523 19.9775 12C19.9775 11.4477 19.5298 11 18.9775 11C18.4253 11 17.9775 11.4477 17.9775 12Z" stroke="#6C757D" stroke-width="2" stroke-linecap="round" stroke-linejoin="round"/>
<path d="M11.9775 12C11.9775 12.5523 12.4253 13 12.9775 13C13.5298 13 13.9775 12.5523 13.9775 12C13.9775 11.4477 13.5298 11 12.9775 11C12.4253 11 11.9775 11.4477 11.9775 12Z" stroke="#6C757D" stroke-width="2" stroke-linecap="round" stroke-linejoin="round"/>
<path d="M5.97754 12C5.97754 12.5523 6.42525 13 6.97754 13C7.52982 13 7.97754 12.5523 7.97754 12C7.97754 11.4477 7.52982 11 6.97754 11C6.42525 11 5.97754 11.4477 5.97754 12Z" stroke="#6C757D" stroke-width="2" stroke-linecap="round" stroke-linejoin="round"/>
</g>
</g>
</svg>
