<svg width="171" height="35" viewBox="0 0 171 35" fill="none" xmlns="http://www.w3.org/2000/svg">
<mask id="mask0_81_331" style="mask-type:alpha" maskUnits="userSpaceOnUse" x="0" y="0" width="171" height="35">
<path d="M0.826172 0.527588H151.26L170.797 34.3915H20.3631L0.826172 0.527588Z" fill="#C4C4C4"/>
</mask>
<g mask="url(#mask0_81_331)">
<path d="M14.7076 28.1891C13.1655 28.1891 11.7067 27.9598 10.3313 27.5014C8.95592 27.0429 7.7785 26.3656 6.79905 25.4695L9.33103 22.1248C9.89369 22.6875 10.6127 23.1772 11.4879 23.594C12.384 24.0108 13.3218 24.2192 14.3012 24.2192C14.8014 24.2192 15.2181 24.1566 15.5516 24.0316C15.9058 23.9066 16.083 23.6878 16.083 23.3752C16.083 23.1668 15.9892 23.0001 15.8016 22.875C15.6349 22.7291 15.2702 22.6041 14.7076 22.4999L13.0821 22.1873C10.9565 21.7705 9.44565 21.1662 8.54956 20.3743C7.6743 19.5616 7.23668 18.4988 7.23668 17.1859C7.23668 16.3315 7.49717 15.5083 8.01815 14.7164C8.55998 13.9037 9.40397 13.2368 10.5501 12.7158C11.7171 12.1949 13.2176 11.9344 15.0514 11.9344C16.6561 11.9344 18.0836 12.1532 19.3339 12.5908C20.6051 13.0076 21.6158 13.6119 22.366 14.4038L19.8966 17.6548C19.3339 17.1129 18.6254 16.6857 17.771 16.3731C16.9166 16.0606 16.1038 15.9043 15.3328 15.9043C14.9368 15.9043 14.6034 15.9355 14.3325 15.998C14.0616 16.0606 13.8532 16.1543 13.7073 16.2794C13.5823 16.3836 13.5197 16.5294 13.5197 16.717C13.5197 16.9254 13.6344 17.1129 13.8636 17.2797C14.1137 17.4255 14.5617 17.561 15.2077 17.686L17.7084 18.1236C19.3548 18.4154 20.553 18.9572 21.3032 19.7491C22.0535 20.541 22.4286 21.51 22.4286 22.6562C22.4286 23.6773 22.1577 24.6047 21.6158 25.4383C21.074 26.2718 20.23 26.9387 19.0838 27.4388C17.9585 27.939 16.4998 28.1891 14.7076 28.1891ZM22.9954 27.8765V5.80759H29.3097V15.2791C29.7473 14.1954 30.3829 13.3723 31.2165 12.8096C32.0709 12.2261 33.0712 11.9344 34.2174 11.9344C35.2802 11.9344 36.1867 12.1428 36.9369 12.5595C37.708 12.9555 38.3019 13.5598 38.7187 14.3726C39.1355 15.1645 39.3438 16.1439 39.3438 17.3109V27.8765H33.0295V18.9989C33.0295 18.1028 32.8836 17.488 32.5919 17.1546C32.321 16.8212 31.9355 16.6545 31.4353 16.6545C31.0185 16.6545 30.6434 16.7587 30.31 16.9671C29.9974 17.1755 29.7473 17.5089 29.5598 17.9674C29.3931 18.405 29.3097 18.9676 29.3097 19.6553V27.8765H22.9954ZM50.1944 11.9344C51.9032 11.9344 53.3932 12.2574 54.6644 12.9034C55.9356 13.5286 56.9255 14.4455 57.634 15.6542C58.3426 16.8629 58.6968 18.332 58.6968 20.0617C58.6968 21.7705 58.3426 23.2397 57.634 24.4692C56.9255 25.6779 55.9356 26.6053 54.6644 27.2513C53.3932 27.8765 51.9032 28.1891 50.1944 28.1891C48.5272 28.1891 47.0476 27.8765 45.7556 27.2513C44.4844 26.6053 43.4841 25.6779 42.7547 24.4692C42.0462 23.2397 41.6919 21.7705 41.6919 20.0617C41.6919 18.332 42.0462 16.8629 42.7547 15.6542C43.4841 14.4455 44.4844 13.5286 45.7556 12.9034C47.0476 12.2574 48.5272 11.9344 50.1944 11.9344ZM50.1944 16.2794C49.7359 16.2794 49.34 16.394 49.0065 16.6232C48.694 16.8524 48.4543 17.2484 48.2876 17.8111C48.1209 18.3737 48.0375 19.1239 48.0375 20.0617C48.0375 20.9995 48.1209 21.7497 48.2876 22.3124C48.4543 22.8542 48.694 23.2501 49.0065 23.5002C49.34 23.7294 49.7359 23.8441 50.1944 23.8441C50.6737 23.8441 51.0696 23.7294 51.3822 23.5002C51.6948 23.2501 51.9345 22.8542 52.1012 22.3124C52.2679 21.7497 52.3513 20.9995 52.3513 20.0617C52.3513 19.1239 52.2679 18.3737 52.1012 17.8111C51.9345 17.2484 51.6948 16.8524 51.3822 16.6232C51.0696 16.394 50.6737 16.2794 50.1944 16.2794ZM61.0618 27.8765V12.247H66.7197L66.9072 15.9043C67.2615 14.6747 67.8137 13.7057 68.5639 12.9972C69.335 12.2886 70.3353 11.9344 71.5648 11.9344C72.0024 11.9344 72.3567 11.976 72.6276 12.0594C72.8985 12.1219 73.0965 12.2053 73.2215 12.3095L72.6589 17.436C72.4505 17.3526 72.1796 17.2797 71.8461 17.2171C71.5127 17.1546 71.1272 17.1234 70.6896 17.1234C70.0644 17.1234 69.5017 17.238 69.0016 17.4672C68.5014 17.6964 68.1055 18.0403 67.8137 18.4988C67.522 18.9364 67.3761 19.499 67.3761 20.1867V27.8765H61.0618ZM82.1199 7.08921V21.8747C82.1199 22.6041 82.2762 23.1251 82.5887 23.4377C82.9222 23.7503 83.4119 23.9066 84.0579 23.9066C84.5164 23.9066 84.9123 23.8649 85.2458 23.7815C85.5792 23.6982 85.8918 23.5627 86.1835 23.3752L86.5899 27.0637C86.0898 27.418 85.4125 27.6889 84.5581 27.8765C83.7037 28.0849 82.8701 28.1891 82.0573 28.1891C80.7236 28.1891 79.5879 28.0119 78.6501 27.6577C77.7332 27.3034 77.0246 26.7407 76.5245 25.9697C76.0452 25.1986 75.8055 24.1671 75.8055 22.875V8.83972L82.1199 7.08921ZM86.3711 12.247V16.592H73.2423V12.247H86.3711ZM96.3852 28.1891C94.593 28.1891 93.0405 27.8765 91.7276 27.2513C90.4356 26.6053 89.4353 25.6779 88.7267 24.4692C88.039 23.2605 87.6952 21.7914 87.6952 20.0617C87.6952 18.332 88.0495 16.8629 88.758 15.6542C89.4665 14.4455 90.4564 13.5286 91.7276 12.9034C92.9988 12.2574 94.468 11.9344 96.1351 11.9344C97.844 11.9344 99.2923 12.2574 100.48 12.9034C101.689 13.5286 102.606 14.4038 103.231 15.5292C103.877 16.6545 104.2 17.9674 104.2 19.4678C104.2 19.8221 104.179 20.1763 104.137 20.5306C104.117 20.8849 104.085 21.187 104.044 21.4371H91.7589V18.6863H101.293L98.292 19.8429C98.292 18.6551 98.1253 17.759 97.7919 17.1546C97.4793 16.5294 96.927 16.2168 96.1351 16.2168C95.5933 16.2168 95.1348 16.3419 94.7597 16.592C94.4055 16.842 94.1346 17.2588 93.947 17.8423C93.7803 18.4258 93.6969 19.1969 93.6969 20.1555C93.6969 21.1141 93.8011 21.8747 94.0095 22.4374C94.2388 22.9792 94.5513 23.3543 94.9473 23.5627C95.3432 23.7711 95.8434 23.8753 96.4477 23.8753C97.1146 23.8753 97.6356 23.7399 98.0107 23.4689C98.3858 23.198 98.6567 22.8229 98.8234 22.3436L103.887 23.8441C103.637 24.8027 103.127 25.605 102.356 26.251C101.605 26.897 100.709 27.3867 99.6674 27.7202C98.6254 28.0328 97.5314 28.1891 96.3852 28.1891ZM106.516 27.8765V12.247H112.205L112.486 18.2799L111.83 17.5922C111.996 16.3836 112.34 15.3624 112.861 14.5289C113.382 13.6744 114.049 13.0284 114.862 12.5908C115.695 12.1532 116.654 11.9344 117.738 11.9344C118.8 11.9344 119.707 12.1428 120.457 12.5595C121.228 12.9555 121.822 13.5598 122.239 14.3726C122.656 15.1645 122.864 16.1439 122.864 17.3109V27.8765H116.55V18.9364C116.55 18.0611 116.404 17.4672 116.112 17.1546C115.841 16.8212 115.445 16.6545 114.924 16.6545C114.528 16.6545 114.164 16.7587 113.83 16.9671C113.518 17.1546 113.268 17.4672 113.08 17.9048C112.913 18.3425 112.83 18.9155 112.83 19.6241V27.8765H106.516ZM133.902 28.1891C132.11 28.1891 130.557 27.8765 129.245 27.2513C127.953 26.6053 126.952 25.6779 126.244 24.4692C125.556 23.2605 125.212 21.7914 125.212 20.0617C125.212 18.332 125.566 16.8629 126.275 15.6542C126.983 14.4455 127.973 13.5286 129.245 12.9034C130.516 12.2574 131.985 11.9344 133.652 11.9344C135.361 11.9344 136.809 12.2574 137.997 12.9034C139.206 13.5286 140.123 14.4038 140.748 15.5292C141.394 16.6545 141.717 17.9674 141.717 19.4678C141.717 19.8221 141.696 20.1763 141.654 20.5306C141.634 20.8849 141.602 21.187 141.561 21.4371H129.276V18.6863H138.81L135.809 19.8429C135.809 18.6551 135.642 17.759 135.309 17.1546C134.996 16.5294 134.444 16.2168 133.652 16.2168C133.11 16.2168 132.652 16.3419 132.277 16.592C131.922 16.842 131.651 17.2588 131.464 17.8423C131.297 18.4258 131.214 19.1969 131.214 20.1555C131.214 21.1141 131.318 21.8747 131.526 22.4374C131.756 22.9792 132.068 23.3543 132.464 23.5627C132.86 23.7711 133.36 23.8753 133.965 23.8753C134.632 23.8753 135.153 23.7399 135.528 23.4689C135.903 23.198 136.174 22.8229 136.34 22.3436L141.404 23.8441C141.154 24.8027 140.644 25.605 139.873 26.251C139.122 26.897 138.226 27.3867 137.184 27.7202C136.142 28.0328 135.048 28.1891 133.902 28.1891ZM149.659 28.1891C148.388 28.1891 147.283 27.8765 146.346 27.2513C145.429 26.6053 144.72 25.6779 144.22 24.4692C143.741 23.2605 143.501 21.8122 143.501 20.1242C143.501 18.3946 143.751 16.9254 144.251 15.7167C144.751 14.4872 145.47 13.5494 146.408 12.9034C147.367 12.2574 148.482 11.9344 149.753 11.9344C151.233 11.9344 152.389 12.4032 153.223 13.341C154.056 14.2579 154.588 15.4354 154.817 16.8733L154.254 17.6548V5.80759H160.569V27.8765H154.879L154.504 22.031L155.223 22.75C155.098 23.8128 154.786 24.761 154.285 25.5946C153.806 26.4073 153.171 27.0429 152.379 27.5014C151.608 27.9598 150.701 28.1891 149.659 28.1891ZM152.097 23.6878C152.556 23.6878 152.941 23.5523 153.254 23.2814C153.567 23.0105 153.806 22.6041 153.973 22.0623C154.16 21.5205 154.254 20.8432 154.254 20.0304C154.254 19.2594 154.171 18.6134 154.004 18.0924C153.858 17.5506 153.619 17.1442 153.285 16.8733C152.973 16.6024 152.577 16.4669 152.097 16.4669C151.41 16.4669 150.857 16.7378 150.441 17.2797C150.045 17.8006 149.847 18.728 149.847 20.0617C149.847 21.3954 150.045 22.3332 150.441 22.875C150.837 23.4168 151.389 23.6878 152.097 23.6878Z" fill="#635EF2"/>
</g>
</svg>
