<svg width="40" height="25" viewBox="0 0 40 25" fill="none" xmlns="http://www.w3.org/2000/svg">
<g id="Group 476">
<path id="Vector 349" d="M6.24219 9.38778C6.42883 9.06224 9.09892 3.4451 9.80552 3.5538C10.2462 3.6216 10.7795 4.09801 11.0533 4.41935C12.111 5.66106 12.8697 7.12082 14.1332 8.17377" stroke="#3F3F41" stroke-width="3" stroke-linecap="round"/>
<path id="Vector 350" d="M23.9023 8.86447C23.2803 8.39797 25.1022 6.07658 25.2766 5.4702C25.4819 4.75651 25.9789 4.28943 26.3694 3.68199C26.5645 3.37843 26.9612 2.05305 27.3297 2.00969C28.9496 1.81912 30.5141 4.49009 31.4029 5.51987C32.035 6.25234 32.4627 7.02669 33.2904 7.52332" stroke="#3F3F41" stroke-width="3" stroke-linecap="round"/>
<path id="Vector 351" d="M2 20.0406C2.19861 19.9082 2.80678 20.4412 2.92722 20.5208C3.93237 21.185 4.96554 21.7401 6.1228 22.0937C8.0121 22.671 9.97082 23.1462 11.951 23.17C15.7607 23.2156 19.3216 22.958 23.0776 22.2096C27.3393 21.3606 31.4022 20.3529 35.1149 18.004C35.9405 17.4817 37.9131 16.2819 37.9131 15.123" stroke="#3F3F41" stroke-width="3" stroke-linecap="round"/>
</g>
</svg>
