<svg width="24" height="24" viewBox="0 0 24 24" fill="none" xmlns="http://www.w3.org/2000/svg">
<g id="Interface / Tag">
<path id="Vector" d="M4.03411 12.5191L11.4811 19.9661C11.8716 20.3567 12.5048 20.3567 12.8953 19.9661L19.9664 12.8951C20.3569 12.5045 20.3569 11.8714 19.9664 11.4808L12.5194 4.03386C12.3095 3.82401 12.0173 3.71821 11.7217 3.74508L5.23993 4.33433C4.75918 4.37804 4.37828 4.75894 4.33458 5.23969L3.74532 11.7215C3.71845 12.0171 3.82425 12.3093 4.03411 12.5191Z" stroke="#3F3F41" stroke-width="2" stroke-linecap="round" stroke-linejoin="round"/>
<path id="Vector_2" d="M8.29875 8.29875C8.68928 7.90823 9.32244 7.90823 9.71297 8.29875C10.1035 8.68928 10.1035 9.32244 9.71297 9.71297C9.32244 10.1035 8.68928 10.1035 8.29875 9.71297C7.90823 9.32244 7.90823 8.68928 8.29875 8.29875Z" stroke="#3F3F41" stroke-width="2" stroke-linecap="round" stroke-linejoin="round"/>
</g>
</svg>
